<svg xmlns="http://www.w3.org/2000/svg" viewBox="0 0 1200 1200"><defs><clipPath id="sc"><path d="M896.0,745.2 L899.6,712.9 L903.5,686.1 L902.6,602.4 L900.1,534.8 L894.0,441.4 L891.5,386.5 L889.5,368.1 L886.4,349.8 L879.8,322.8 L870.8,296.6 L863.5,279.6 L850.7,254.9 L840.9,239.1 L830.2,224.0 L818.5,209.5 L799.4,189.2 L778.3,170.7 L755.5,154.3 L731.2,140.2 L705.6,128.5 L678.9,119.5 L651.5,113.1 L623.5,109.5 L595.3,108.7 L567.2,110.7 L539.4,115.5 L512.3,123.0 L486.3,133.5 L461.4,146.3 L437.9,161.4 L415.9,178.4 L395.6,197.3 L377.0,217.9 L360.4,240.0 L350.5,255.6 L337.7,280.1 L327.3,305.8 L321.9,323.3 L316.1,350.3 L313.7,368.5 L312.5,386.7 L312.6,405.8 L313.4,412.8 L324.7,471.6 L329.5,492.1 L335.1,509.5 L349.8,547.1 L355.2,564.6 L357.2,542.7 L354.7,522.7 L353.0,500.7 L347.0,469.5 L343.3,443.0 L341.1,416.2 L341.0,396.8 L343.6,372.3 L348.7,348.2 L356.1,324.9 L362.2,309.8 L369.2,295.5 L360.9,318.0 L354.6,341.3 L350.5,365.1 L348.4,393.3 L350.7,373.2 L353.6,357.8 L350.9,381.2 L350.4,405.2 L354.8,438.9 L356.5,459.7 L357.6,484.5 L360.4,504.2 L362.5,524.9 L365.2,524.7 L373.7,567.6 L374.2,529.8 L370.3,509.2 L369.4,491.4 L370.9,467.3 L372.1,471.3 L371.9,452.2 L373.6,461.6 L374.1,452.0 L378.5,472.6 L380.6,487.3 L381.5,502.2 L381.4,516.8 L383.7,560.1 L387.5,579.4 L382.2,579.9 L408.5,577.5 L407.4,553.6 L407.4,538.7 L411.2,481.5 L411.2,427.6 L412.4,403.5 L412.9,404.3 L415.3,387.4 L417.9,375.9 L421.1,364.6 L427.1,348.2 L431.8,337.7 L439.8,322.4 L449.0,307.9 L455.7,298.7 L466.7,285.7 L474.6,277.6 L491.9,262.9 L506.1,253.6 L516.0,248.2 L536.8,239.6 L547.6,236.4 L564.0,232.8 L575.0,231.2 L591.7,230.4 L613.8,231.9 L624.6,233.8 L640.5,237.9 L660.9,245.7 L679.9,255.8 L697.5,268.1 L713.5,282.1 L727.8,297.7 L734.3,306.1 L743.3,319.2 L753.5,337.8 L761.7,357.5 L767.7,378.2 L771.2,399.6 L789.8,621.3 L793.6,659.1 L797.7,691.4 L798.6,696.8 L817.7,754.7 L861.5,749.3 L858.3,685.4 L861.0,685.1 L872.0,748.1 L863.6,749.1 L896.0,745.2 Z M613.1,130.9 L638.3,134.0 L621.6,132.7 L604.3,132.3 L578.4,133.8 L552.9,137.7 L536.1,141.6 L519.6,146.5 L495.6,155.7 L480.1,163.1 L465.1,171.4 L450.7,180.5 L436.8,190.6 L423.6,201.4 L411.0,213.0 L399.2,225.4 L388.2,238.4 L373.1,259.2 L364.2,273.8 L356.1,288.9 L345.8,312.5 L337.6,336.9 L331.8,362.1 L329.2,379.1 L327.6,396.4 L327.5,420.5 L325.3,405.6 L325.2,396.3 L325.9,378.8 L327.7,361.4 L330.6,344.2 L334.7,327.1 L342.8,302.0 L349.6,285.8 L357.5,270.1 L371.2,247.5 L387.1,226.3 L405.0,206.9 L424.7,189.3 L446.1,173.7 L468.9,160.4 L484.8,152.8 L501.1,146.2 L526.3,138.5 L552.1,133.2 L578.2,130.5 L595.6,130.1 L613.1,130.9 Z M529.8,202.2 L569.5,193.2 L583.0,191.5 L603.4,190.5 L617.0,191.1 L637.3,193.5 L650.6,196.3 L663.8,199.9 L676.6,204.4 L689.2,209.8 L707.2,219.3 L718.7,226.6 L734.9,239.0 L745.0,248.1 L758.9,262.8 L771.3,278.9 L778.9,290.4 L762.2,268.9 L753.0,259.1 L743.3,249.9 L733.0,241.3 L722.2,233.4 L711.0,226.2 L696.6,218.3 L710.5,226.9 L726.7,239.3 L709.4,228.7 L691.8,219.8 L673.5,212.5 L648.5,205.0 L629.3,201.0 L609.8,198.6 L590.1,197.7 L569.9,198.6 L590.0,195.7 L606.4,194.9 L583.3,195.1 L570.0,196.4 L555.7,198.7 L537.6,204.4 L525.2,209.3 L513.2,214.9 L495.9,224.7 L484.8,231.9 L469.1,243.9 L459.3,252.6 L445.4,266.7 L432.7,281.8 L425.0,292.5 L414.5,309.4 L408.3,321.1 L400.4,339.4 L396.0,352.1 L389.4,378.5 L391.9,358.0 L394.7,344.7 L400.5,325.1 L405.4,312.4 L414.5,293.9 L421.6,282.2 L429.6,271.0 L438.3,260.3 L447.8,250.3 L457.9,241.0 L468.7,232.5 L485.9,221.1 L498.0,214.6 L516.8,206.5 L529.8,202.2 Z M443.6,235.6 L455.1,226.7 L467.4,218.6 L451.0,233.0 L436.1,248.7 L422.6,265.5 L406.7,289.3 L393.2,314.5 L384.8,334.3 L378.0,354.9 L372.9,376.1 L375.5,354.3 L380.3,332.8 L387.4,312.0 L393.5,298.5 L400.6,285.6 L413.0,267.3 L427.4,250.6 L443.6,235.6 Z M539.1,209.0 L551.7,205.8 L564.9,203.3 L545.6,208.2 L527.3,214.6 L509.7,222.7 L498.4,229.0 L487.6,236.0 L472.2,247.7 L453.5,265.3 L441.0,280.0 L426.6,301.2 L417.6,318.2 L410.1,335.9 L404.3,354.2 L401.3,366.7 L398.4,385.7 L397.2,404.5 L399.3,446.7 L393.5,404.6 L394.1,385.3 L395.7,372.3 L399.5,353.0 L405.3,334.1 L412.9,315.9 L422.2,298.5 L429.3,287.5 L441.4,271.9 L454.9,257.6 L469.7,244.6 L485.7,233.2 L502.7,223.4 L520.5,215.3 L539.1,209.0 Z M364.1,367.3 L367.8,352.6 L372.6,338.3 L368.7,360.4 L367.2,375.3 L366.6,390.2 L366.8,405.0 L369.5,422.5 L370.6,437.4 L370.5,455.4 L369.4,473.4 L362.0,441.2 L359.5,417.5 L359.6,397.4 L361.3,382.2 L364.1,367.3 Z M810.6,252.2 L822.4,271.9 L829.4,286.3 L816.2,266.0 L806.4,253.1 L795.8,240.7 L784.6,229.0 L772.7,218.0 L760.3,207.6 L747.4,198.0 L734.0,189.0 L720.2,180.7 L705.8,173.2 L691.1,166.5 L676.0,160.6 L660.5,155.6 L644.7,151.5 L629.0,148.3 L653.2,150.9 L669.4,154.1 L685.4,158.3 L702.9,164.5 L685.7,157.4 L670.4,152.1 L693.9,159.2 L709.4,165.3 L732.0,176.4 L753.3,189.7 L773.3,205.0 L785.7,216.3 L797.3,228.5 L813.2,248.0 L822.6,261.9 L834.9,283.9 L841.9,299.1 L850.5,322.7 L856.6,347.0 L860.4,371.3 L857.3,355.4 L853.3,339.3 L848.3,323.5 L842.3,308.0 L835.4,292.9 L827.7,278.3 L819.0,264.2 L810.6,252.2 Z M700.0,231.8 L710.6,238.8 L721.2,246.7 L704.7,236.2 L693.7,230.2 L676.4,222.5 L658.6,216.5 L640.4,212.1 L621.8,209.3 L603.1,208.3 L584.4,208.8 L565.8,211.1 L553.5,213.5 L535.4,218.4 L523.6,222.7 L506.4,230.4 L495.4,236.4 L473.9,250.7 L484.2,242.4 L499.9,231.6 L516.6,222.5 L528.3,217.3 L546.4,211.0 L558.7,207.8 L571.3,205.4 L584.0,203.9 L596.8,203.3 L609.6,203.5 L622.3,204.6 L641.2,207.9 L653.6,211.1 L671.7,217.4 L683.3,222.6 L700.0,231.8 Z M835.6,273.9 L843.1,289.3 L849.3,304.6 L838.1,282.2 L824.9,260.5 L809.8,240.0 L798.8,227.2 L787.1,215.0 L774.7,203.4 L761.6,192.6 L740.9,177.9 L719.0,164.9 L696.4,154.1 L719.7,163.6 L742.4,175.5 L763.8,189.8 L777.2,200.4 L789.9,212.1 L807.3,231.1 L822.6,251.8 L835.6,273.9 Z M768.9,263.2 L777.3,274.5 L785.1,286.4 L776.6,275.0 L766.6,263.0 L776.0,275.4 L783.6,287.3 L771.0,270.5 L761.9,260.2 L752.2,250.4 L741.8,241.3 L731.0,232.9 L719.7,225.1 L707.9,218.1 L695.7,211.9 L683.2,206.4 L670.4,201.6 L657.3,197.7 L644.0,194.6 L630.6,192.3 L617.0,190.8 L603.4,190.1 L589.8,190.3 L576.2,191.2 L555.9,194.3 L536.0,199.2 L516.6,205.9 L504.0,211.3 L491.8,217.5 L474.2,228.3 L457.6,240.7 L437.2,259.7 L446.7,249.2 L457.9,238.5 L446.1,248.7 L436.0,258.6 L450.5,243.1 L460.8,233.7 L471.8,224.9 L483.3,216.9 L495.3,209.6 L514.2,200.1 L527.3,194.9 L540.7,190.5 L561.3,185.5 L582.3,182.7 L603.5,181.9 L624.7,183.2 L645.7,186.6 L666.2,192.1 L679.5,196.9 L692.5,202.5 L711.1,212.5 L723.0,220.2 L734.3,228.6 L750.1,242.5 L759.9,252.6 L768.9,263.2 Z M874.1,415.5 L873.1,435.7 L876.0,504.4 L877.3,577.9 L873.5,536.0 L871.4,499.4 L870.8,462.7 L871.8,420.1 L870.5,396.4 L867.9,370.8 L863.0,345.6 L858.7,329.1 L850.4,304.8 L843.7,289.0 L836.1,273.6 L827.7,258.7 L818.4,244.2 L808.2,230.3 L791.8,211.0 L803.8,222.6 L815.5,235.6 L831.3,256.4 L844.9,278.7 L856.1,302.5 L864.8,327.2 L869.1,344.2 L872.2,361.4 L874.6,387.5 L874.1,415.5 Z M811.2,431.8 L810.4,539.0 L805.6,474.7 L802.3,392.1 L800.5,372.9 L798.4,360.2 L792.4,335.0 L785.5,316.7 L779.9,304.9 L773.6,293.5 L758.6,271.4 L771.4,287.0 L782.4,303.5 L794.7,327.1 L802.2,345.6 L807.8,365.0 L811.0,384.8 L812.0,405.2 L811.2,431.8 Z M821.7,694.5 L823.8,743.0 L817.0,705.8 L812.9,673.6 L810.9,641.3 L810.7,603.6 L816.3,640.9 L819.5,667.6 L821.7,694.5 Z" clip-rule="evenodd"/></clipPath></defs><path d="M896.0,745.2 L899.6,712.9 L903.5,686.1 L902.6,602.4 L900.1,534.8 L894.0,441.4 L891.5,386.5 L889.5,368.1 L886.4,349.8 L879.8,322.8 L870.8,296.6 L863.5,279.6 L850.7,254.9 L840.9,239.1 L830.2,224.0 L818.5,209.5 L799.4,189.2 L778.3,170.7 L755.5,154.3 L731.2,140.2 L705.6,128.5 L678.9,119.5 L651.5,113.1 L623.5,109.5 L595.3,108.7 L567.2,110.7 L539.4,115.5 L512.3,123.0 L486.3,133.5 L461.4,146.3 L437.9,161.4 L415.9,178.4 L395.6,197.3 L377.0,217.9 L360.4,240.0 L350.5,255.6 L337.7,280.1 L327.3,305.8 L321.9,323.3 L316.1,350.3 L313.7,368.5 L312.5,386.7 L312.6,405.8 L313.4,412.8 L324.7,471.6 L329.5,492.1 L335.1,509.5 L349.8,547.1 L355.2,564.6 L357.2,542.7 L354.7,522.7 L353.0,500.7 L347.0,469.5 L343.3,443.0 L341.1,416.2 L341.0,396.8 L343.6,372.3 L348.7,348.2 L356.1,324.9 L362.2,309.8 L369.2,295.5 L360.9,318.0 L354.6,341.3 L350.5,365.1 L348.4,393.3 L350.7,373.2 L353.6,357.8 L350.9,381.2 L350.4,405.2 L354.8,438.9 L356.5,459.7 L357.6,484.5 L360.4,504.2 L362.5,524.9 L365.2,524.7 L373.7,567.6 L374.2,529.8 L370.3,509.2 L369.4,491.4 L370.9,467.3 L372.1,471.3 L371.9,452.2 L373.6,461.6 L374.1,452.0 L378.5,472.6 L380.6,487.3 L381.5,502.2 L381.4,516.8 L383.7,560.1 L387.5,579.4 L382.2,579.9 L408.5,577.5 L407.4,553.6 L407.4,538.7 L411.2,481.5 L411.2,427.6 L412.4,403.5 L412.9,404.3 L415.3,387.4 L417.9,375.9 L421.1,364.6 L427.1,348.2 L431.8,337.7 L439.8,322.4 L449.0,307.9 L455.7,298.7 L466.7,285.7 L474.6,277.6 L491.9,262.9 L506.1,253.6 L516.0,248.2 L536.8,239.6 L547.6,236.4 L564.0,232.8 L575.0,231.2 L591.7,230.4 L613.8,231.9 L624.6,233.8 L640.5,237.9 L660.9,245.7 L679.9,255.8 L697.5,268.1 L713.5,282.1 L727.8,297.7 L734.3,306.1 L743.3,319.2 L753.5,337.8 L761.7,357.5 L767.7,378.2 L771.2,399.6 L789.8,621.3 L793.6,659.1 L797.7,691.4 L798.6,696.8 L817.7,754.7 L861.5,749.3 L858.3,685.4 L861.0,685.1 L872.0,748.1 L863.6,749.1 L896.0,745.2 Z M613.1,130.9 L638.3,134.0 L621.6,132.7 L604.3,132.3 L578.4,133.8 L552.9,137.7 L536.1,141.6 L519.6,146.5 L495.6,155.7 L480.1,163.1 L465.1,171.4 L450.7,180.5 L436.8,190.6 L423.6,201.4 L411.0,213.0 L399.2,225.4 L388.2,238.4 L373.1,259.2 L364.2,273.8 L356.1,288.9 L345.8,312.5 L337.6,336.9 L331.8,362.1 L329.2,379.1 L327.6,396.4 L327.5,420.5 L325.3,405.6 L325.2,396.3 L325.9,378.8 L327.7,361.4 L330.6,344.2 L334.7,327.1 L342.8,302.0 L349.6,285.8 L357.5,270.1 L371.2,247.5 L387.1,226.3 L405.0,206.9 L424.7,189.3 L446.1,173.7 L468.9,160.4 L484.8,152.8 L501.1,146.2 L526.3,138.5 L552.1,133.2 L578.2,130.5 L595.6,130.1 L613.1,130.9 Z M529.8,202.2 L569.5,193.2 L583.0,191.5 L603.4,190.5 L617.0,191.1 L637.3,193.5 L650.6,196.3 L663.8,199.9 L676.6,204.4 L689.2,209.8 L707.2,219.3 L718.7,226.6 L734.9,239.0 L745.0,248.1 L758.9,262.8 L771.3,278.9 L778.9,290.4 L762.2,268.9 L753.0,259.1 L743.3,249.9 L733.0,241.3 L722.2,233.4 L711.0,226.2 L696.6,218.3 L710.5,226.9 L726.7,239.3 L709.4,228.7 L691.8,219.8 L673.5,212.5 L648.5,205.0 L629.3,201.0 L609.8,198.6 L590.1,197.7 L569.9,198.6 L590.0,195.7 L606.4,194.9 L583.3,195.1 L570.0,196.4 L555.7,198.7 L537.6,204.4 L525.2,209.3 L513.2,214.9 L495.9,224.7 L484.8,231.9 L469.1,243.9 L459.3,252.6 L445.4,266.7 L432.7,281.8 L425.0,292.5 L414.5,309.4 L408.3,321.1 L400.4,339.4 L396.0,352.1 L389.4,378.5 L391.9,358.0 L394.7,344.7 L400.5,325.1 L405.4,312.4 L414.5,293.9 L421.6,282.2 L429.6,271.0 L438.3,260.3 L447.8,250.3 L457.9,241.0 L468.7,232.5 L485.9,221.1 L498.0,214.6 L516.8,206.5 L529.8,202.2 Z M443.6,235.6 L455.1,226.7 L467.4,218.6 L451.0,233.0 L436.1,248.7 L422.6,265.5 L406.7,289.3 L393.2,314.5 L384.8,334.3 L378.0,354.9 L372.9,376.1 L375.5,354.3 L380.3,332.8 L387.4,312.0 L393.5,298.5 L400.6,285.6 L413.0,267.3 L427.4,250.6 L443.6,235.6 Z M539.1,209.0 L551.7,205.8 L564.9,203.3 L545.6,208.2 L527.3,214.6 L509.7,222.7 L498.4,229.0 L487.6,236.0 L472.2,247.7 L453.5,265.3 L441.0,280.0 L426.6,301.2 L417.6,318.2 L410.1,335.9 L404.3,354.2 L401.3,366.7 L398.4,385.7 L397.2,404.5 L399.3,446.7 L393.5,404.6 L394.1,385.3 L395.7,372.3 L399.5,353.0 L405.3,334.1 L412.9,315.9 L422.2,298.5 L429.3,287.5 L441.4,271.9 L454.9,257.6 L469.7,244.6 L485.7,233.2 L502.7,223.4 L520.5,215.3 L539.1,209.0 Z M364.1,367.3 L367.8,352.6 L372.6,338.3 L368.7,360.4 L367.2,375.3 L366.6,390.2 L366.8,405.0 L369.5,422.5 L370.6,437.4 L370.5,455.4 L369.4,473.4 L362.0,441.2 L359.5,417.5 L359.6,397.4 L361.3,382.2 L364.1,367.3 Z M810.6,252.2 L822.4,271.9 L829.4,286.3 L816.2,266.0 L806.4,253.1 L795.8,240.7 L784.6,229.0 L772.7,218.0 L760.3,207.6 L747.4,198.0 L734.0,189.0 L720.2,180.7 L705.8,173.2 L691.1,166.5 L676.0,160.6 L660.5,155.6 L644.7,151.5 L629.0,148.3 L653.2,150.9 L669.4,154.1 L685.4,158.3 L702.9,164.5 L685.7,157.4 L670.4,152.1 L693.9,159.2 L709.4,165.3 L732.0,176.4 L753.3,189.7 L773.3,205.0 L785.7,216.3 L797.3,228.5 L813.2,248.0 L822.6,261.9 L834.9,283.9 L841.9,299.1 L850.5,322.7 L856.6,347.0 L860.4,371.3 L857.3,355.4 L853.3,339.3 L848.3,323.5 L842.3,308.0 L835.4,292.9 L827.7,278.3 L819.0,264.2 L810.6,252.2 Z M700.0,231.8 L710.6,238.8 L721.2,246.7 L704.7,236.2 L693.7,230.2 L676.4,222.5 L658.6,216.5 L640.4,212.1 L621.8,209.3 L603.1,208.3 L584.4,208.8 L565.8,211.1 L553.5,213.5 L535.4,218.4 L523.6,222.7 L506.4,230.4 L495.4,236.4 L473.9,250.7 L484.2,242.4 L499.9,231.6 L516.6,222.5 L528.3,217.3 L546.4,211.0 L558.7,207.8 L571.3,205.4 L584.0,203.9 L596.8,203.3 L609.6,203.5 L622.3,204.6 L641.2,207.9 L653.6,211.1 L671.7,217.4 L683.3,222.6 L700.0,231.8 Z M835.6,273.9 L843.1,289.3 L849.3,304.6 L838.1,282.2 L824.9,260.5 L809.8,240.0 L798.8,227.2 L787.1,215.0 L774.7,203.4 L761.6,192.6 L740.9,177.9 L719.0,164.9 L696.4,154.1 L719.7,163.6 L742.4,175.5 L763.8,189.8 L777.2,200.4 L789.9,212.1 L807.3,231.1 L822.6,251.8 L835.6,273.9 Z M768.9,263.2 L777.3,274.5 L785.1,286.4 L776.6,275.0 L766.6,263.0 L776.0,275.4 L783.6,287.3 L771.0,270.5 L761.9,260.2 L752.2,250.4 L741.8,241.3 L731.0,232.9 L719.7,225.1 L707.9,218.1 L695.7,211.9 L683.2,206.4 L670.4,201.6 L657.3,197.7 L644.0,194.6 L630.6,192.3 L617.0,190.8 L603.4,190.1 L589.8,190.3 L576.2,191.2 L555.9,194.3 L536.0,199.2 L516.6,205.9 L504.0,211.3 L491.8,217.5 L474.2,228.3 L457.6,240.7 L437.2,259.7 L446.7,249.2 L457.9,238.5 L446.1,248.7 L436.0,258.6 L450.5,243.1 L460.8,233.7 L471.8,224.9 L483.3,216.9 L495.3,209.6 L514.2,200.1 L527.3,194.9 L540.7,190.5 L561.3,185.5 L582.3,182.7 L603.5,181.9 L624.7,183.2 L645.7,186.6 L666.2,192.1 L679.5,196.9 L692.5,202.5 L711.1,212.5 L723.0,220.2 L734.3,228.6 L750.1,242.5 L759.9,252.6 L768.9,263.2 Z M874.1,415.5 L873.1,435.7 L876.0,504.4 L877.3,577.9 L873.5,536.0 L871.4,499.4 L870.8,462.7 L871.8,420.1 L870.5,396.4 L867.9,370.8 L863.0,345.6 L858.7,329.1 L850.4,304.8 L843.7,289.0 L836.1,273.6 L827.7,258.7 L818.4,244.2 L808.2,230.3 L791.8,211.0 L803.8,222.6 L815.5,235.6 L831.3,256.4 L844.9,278.7 L856.1,302.5 L864.8,327.2 L869.1,344.2 L872.2,361.4 L874.6,387.5 L874.1,415.5 Z M811.2,431.8 L810.4,539.0 L805.6,474.7 L802.3,392.1 L800.5,372.9 L798.4,360.2 L792.4,335.0 L785.5,316.7 L779.9,304.9 L773.6,293.5 L758.6,271.4 L771.4,287.0 L782.4,303.5 L794.7,327.1 L802.2,345.6 L807.8,365.0 L811.0,384.8 L812.0,405.2 L811.2,431.8 Z M821.7,694.5 L823.8,743.0 L817.0,705.8 L812.9,673.6 L810.9,641.3 L810.7,603.6 L816.3,640.9 L819.5,667.6 L821.7,694.5 Z" fill="#BD6B4D" fill-rule="evenodd"/><g clip-path="url(#sc)"><path d="M495.4,230.9 L492.5,234.1" stroke="#91503A" stroke-width="0.9" stroke-linecap="round" opacity="0.27"/><path d="M406.9,332.8 L404.5,340.4" stroke="#91503A" stroke-width="1.2" stroke-linecap="round" opacity="0.29"/><path d="M855.4,342.0 L852.5,334.3" stroke="#91503A" stroke-width="2.6" stroke-linecap="round" opacity="0.26"/><path d="M486.2,157.2 L483.0,158.8" stroke="#DDA081" stroke-width="0.9" stroke-linecap="round" opacity="0.17"/><path d="M728.2,225.2 L718.4,220.6" stroke="#91503A" stroke-width="1.9" stroke-linecap="round" opacity="0.20"/><path d="M512.5,171.4 L503.8,174.1" stroke="#91503A" stroke-width="1.4" stroke-linecap="round" opacity="0.16"/><path d="M792.1,414.8 L791.9,401.0" stroke="#DDA081" stroke-width="2.6" stroke-linecap="round" opacity="0.31"/><path d="M387.6,481.8 L389.0,492.3" stroke="#DDA081" stroke-width="2.4" stroke-linecap="round" opacity="0.26"/><path d="M392.5,345.9 L390.3,352.2" stroke="#91503A" stroke-width="1.5" stroke-linecap="round" opacity="0.34"/><path d="M888.1,669.0 L887.3,658.6" stroke="#DDA081" stroke-width="1.8" stroke-linecap="round" opacity="0.31"/><path d="M500.3,140.2 L496.3,141.4" stroke="#91503A" stroke-width="1.0" stroke-linecap="round" opacity="0.28"/><path d="M344.2,439.6 L344.8,444.1" stroke="#DDA081" stroke-width="1.4" stroke-linecap="round" opacity="0.33"/><path d="M361.8,406.1 L362.1,413.0" stroke="#DDA081" stroke-width="1.2" stroke-linecap="round" opacity="0.33"/><path d="M805.1,681.1 L804.6,671.6" stroke="#91503A" stroke-width="1.5" stroke-linecap="round" opacity="0.30"/><path d="M598.6,162.5 L582.3,163.1" stroke="#91503A" stroke-width="2.4" stroke-linecap="round" opacity="0.15"/><path d="M851.6,608.7 L851.1,602.2" stroke="#DDA081" stroke-width="1.0" stroke-linecap="round" opacity="0.20"/><path d="M803.8,358.9 L802.1,351.3" stroke="#DDA081" stroke-width="1.4" stroke-linecap="round" opacity="0.32"/><path d="M377.6,303.6 L371.8,319.0" stroke="#91503A" stroke-width="2.4" stroke-linecap="round" opacity="0.20"/><path d="M801.0,310.0 L798.3,305.0" stroke="#91503A" stroke-width="0.9" stroke-linecap="round" opacity="0.21"/><path d="M404.6,444.4 L405.2,456.7" stroke="#91503A" stroke-width="1.9" stroke-linecap="round" opacity="0.33"/><path d="M880.5,425.6 L880.4,412.6" stroke="#91503A" stroke-width="2.0" stroke-linecap="round" opacity="0.28"/><path d="M345.2,482.7 L345.5,487.7" stroke="#91503A" stroke-width="0.8" stroke-linecap="round" opacity="0.27"/><path d="M402.2,517.9 L403.3,526.8" stroke="#DDA081" stroke-width="1.8" stroke-linecap="round" opacity="0.20"/><path d="M798.1,512.0 L797.8,504.3" stroke="#91503A" stroke-width="1.2" stroke-linecap="round" opacity="0.18"/><path d="M397.1,501.9 L398.3,513.4" stroke="#91503A" stroke-width="2.0" stroke-linecap="round" opacity="0.19"/><path d="M776.4,280.8 L769.7,275.1" stroke="#DDA081" stroke-width="2.3" stroke-linecap="round" opacity="0.24"/><path d="M809.3,581.9 L808.7,570.1" stroke="#DDA081" stroke-width="1.9" stroke-linecap="round" opacity="0.17"/><path d="M764.3,318.6 L760.2,312.4" stroke="#DDA081" stroke-width="1.6" stroke-linecap="round" opacity="0.15"/><path d="M860.5,585.8 L860.0,578.6" stroke="#DDA081" stroke-width="1.3" stroke-linecap="round" opacity="0.26"/><path d="M392.0,560.2 L392.6,567.0" stroke="#91503A" stroke-width="1.2" stroke-linecap="round" opacity="0.33"/><path d="M736.6,223.1 L734.2,221.2" stroke="#91503A" stroke-width="1.0" stroke-linecap="round" opacity="0.19"/><path d="M890.1,677.6 L889.5,671.4" stroke="#DDA081" stroke-width="1.3" stroke-linecap="round" opacity="0.27"/><path d="M842.6,444.4 L842.5,431.7" stroke="#91503A" stroke-width="2.1" stroke-linecap="round" opacity="0.30"/><path d="M546.7,160.1 L541.8,161.8" stroke="#91503A" stroke-width="1.8" stroke-linecap="round" opacity="0.20"/><path d="M822.2,368.9 L821.6,363.6" stroke="#91503A" stroke-width="1.0" stroke-linecap="round" opacity="0.28"/><path d="M833.7,452.2 L833.6,447.1" stroke="#DDA081" stroke-width="1.1" stroke-linecap="round" opacity="0.14"/><path d="M850.3,474.2 L850.1,469.5" stroke="#DDA081" stroke-width="1.6" stroke-linecap="round" opacity="0.25"/><path d="M721.7,191.2 L718.7,189.3" stroke="#DDA081" stroke-width="0.8" stroke-linecap="round" opacity="0.16"/><path d="M602.3,137.9 L590.5,138.1" stroke="#91503A" stroke-width="2.6" stroke-linecap="round" opacity="0.18"/><path d="M533.1,184.5 L526.9,187.5" stroke="#91503A" stroke-width="2.2" stroke-linecap="round" opacity="0.19"/><path d="M846.3,595.8 L845.7,588.9" stroke="#91503A" stroke-width="1.8" stroke-linecap="round" opacity="0.15"/><path d="M831.1,737.0 L830.2,724.6" stroke="#DDA081" stroke-width="2.5" stroke-linecap="round" opacity="0.34"/><path d="M504.8,237.5 L499.6,239.8" stroke="#DDA081" stroke-width="1.5" stroke-linecap="round" opacity="0.32"/><path d="M668.1,174.9 L664.5,173.3" stroke="#DDA081" stroke-width="1.0" stroke-linecap="round" opacity="0.29"/><path d="M677.6,174.8 L668.3,173.0" stroke="#91503A" stroke-width="1.7" stroke-linecap="round" opacity="0.30"/><path d="M776.4,252.9 L773.3,249.9" stroke="#91503A" stroke-width="1.1" stroke-linecap="round" opacity="0.20"/><path d="M363.8,573.2 L364.3,579.0" stroke="#91503A" stroke-width="1.7" stroke-linecap="round" opacity="0.28"/><path d="M548.0,205.9 L541.7,208.1" stroke="#91503A" stroke-width="1.5" stroke-linecap="round" opacity="0.28"/><path d="M383.3,274.5 L376.6,282.5" stroke="#91503A" stroke-width="2.3" stroke-linecap="round" opacity="0.25"/><path d="M375.5,318.1 L373.1,329.7" stroke="#DDA081" stroke-width="2.3" stroke-linecap="round" opacity="0.25"/><path d="M575.2,169.2 L571.7,169.5" stroke="#DDA081" stroke-width="1.0" stroke-linecap="round" opacity="0.29"/><path d="M380.7,491.3 L382.0,497.9" stroke="#91503A" stroke-width="2.2" stroke-linecap="round" opacity="0.23"/><path d="M829.9,351.1 L828.4,342.7" stroke="#91503A" stroke-width="1.4" stroke-linecap="round" opacity="0.25"/><path d="M337.3,377.9 L337.0,384.2" stroke="#91503A" stroke-width="1.1" stroke-linecap="round" opacity="0.26"/><path d="M393.1,515.4 L394.4,529.3" stroke="#DDA081" stroke-width="2.2" stroke-linecap="round" opacity="0.17"/><path d="M357.5,432.9 L358.4,444.1" stroke="#91503A" stroke-width="2.0" stroke-linecap="round" opacity="0.14"/><path d="M377.2,520.8 L378.2,528.4" stroke="#DDA081" stroke-width="1.7" stroke-linecap="round" opacity="0.23"/><path d="M706.4,186.4 L701.6,184.0" stroke="#91503A" stroke-width="1.7" stroke-linecap="round" opacity="0.26"/><path d="M359.7,500.3 L360.6,509.9" stroke="#91503A" stroke-width="1.5" stroke-linecap="round" opacity="0.21"/><path d="M423.1,327.1 L421.4,329.6" stroke="#DDA081" stroke-width="0.9" stroke-linecap="round" opacity="0.27"/><path d="M365.6,299.7 L362.6,303.2" stroke="#91503A" stroke-width="1.3" stroke-linecap="round" opacity="0.23"/><path d="M377.8,439.2 L378.9,446.9" stroke="#91503A" stroke-width="1.9" stroke-linecap="round" opacity="0.15"/><path d="M630.0,205.6 L625.9,204.6" stroke="#91503A" stroke-width="1.4" stroke-linecap="round" opacity="0.17"/><path d="M355.9,515.4 L356.4,521.2" stroke="#DDA081" stroke-width="1.0" stroke-linecap="round" opacity="0.25"/><path d="M376.5,353.0 L374.0,361.4" stroke="#91503A" stroke-width="2.0" stroke-linecap="round" opacity="0.24"/><path d="M832.6,593.2 L832.0,587.2" stroke="#91503A" stroke-width="1.5" stroke-linecap="round" opacity="0.30"/><path d="M362.0,380.5 L361.2,387.8" stroke="#DDA081" stroke-width="2.1" stroke-linecap="round" opacity="0.32"/><path d="M824.9,712.9 L824.2,707.2" stroke="#91503A" stroke-width="1.9" stroke-linecap="round" opacity="0.23"/><path d="M861.8,605.3 L861.5,599.6" stroke="#91503A" stroke-width="0.9" stroke-linecap="round" opacity="0.32"/><path d="M872.5,741.3 L872.0,736.2" stroke="#DDA081" stroke-width="1.4" stroke-linecap="round" opacity="0.22"/><path d="M368.1,445.2 L369.1,456.2" stroke="#DDA081" stroke-width="1.7" stroke-linecap="round" opacity="0.14"/><path d="M470.7,249.7 L467.6,252.8" stroke="#91503A" stroke-width="0.9" stroke-linecap="round" opacity="0.32"/><path d="M387.0,238.2 L379.9,247.4" stroke="#91503A" stroke-width="2.0" stroke-linecap="round" opacity="0.16"/><path d="M384.9,526.7 L386.3,537.2" stroke="#91503A" stroke-width="2.5" stroke-linecap="round" opacity="0.26"/><path d="M870.2,641.0 L868.9,632.8" stroke="#91503A" stroke-width="2.4" stroke-linecap="round" opacity="0.25"/><path d="M421.3,279.9 L416.8,288.2" stroke="#91503A" stroke-width="1.5" stroke-linecap="round" opacity="0.22"/><path d="M567.5,203.6 L562.8,204.2" stroke="#91503A" stroke-width="1.0" stroke-linecap="round" opacity="0.31"/><path d="M346.3,440.4 L346.9,445.0" stroke="#DDA081" stroke-width="1.6" stroke-linecap="round" opacity="0.29"/><path d="M884.7,615.4 L883.7,609.3" stroke="#91503A" stroke-width="2.0" stroke-linecap="round" opacity="0.30"/><path d="M731.1,258.1 L726.5,255.6" stroke="#91503A" stroke-width="0.9" stroke-linecap="round" opacity="0.33"/><path d="M812.8,678.2 L812.3,669.0" stroke="#91503A" stroke-width="1.5" stroke-linecap="round" opacity="0.18"/><path d="M334.9,381.6 L334.6,391.8" stroke="#91503A" stroke-width="1.6" stroke-linecap="round" opacity="0.33"/><path d="M405.7,540.0 L406.6,546.6" stroke="#91503A" stroke-width="2.3" stroke-linecap="round" opacity="0.23"/><path d="M381.7,317.8 L379.9,325.6" stroke="#91503A" stroke-width="1.7" stroke-linecap="round" opacity="0.17"/><path d="M363.2,542.0 L364.2,554.8" stroke="#91503A" stroke-width="2.3" stroke-linecap="round" opacity="0.34"/><path d="M853.2,696.0 L852.2,689.9" stroke="#DDA081" stroke-width="1.4" stroke-linecap="round" opacity="0.14"/><path d="M376.4,387.1 L375.5,400.3" stroke="#91503A" stroke-width="2.5" stroke-linecap="round" opacity="0.30"/><path d="M725.8,196.8 L716.6,190.0" stroke="#91503A" stroke-width="2.4" stroke-linecap="round" opacity="0.15"/><path d="M384.1,546.8 L385.1,553.0" stroke="#91503A" stroke-width="1.7" stroke-linecap="round" opacity="0.16"/><path d="M404.3,310.5 L399.8,323.1" stroke="#DDA081" stroke-width="2.5" stroke-linecap="round" opacity="0.19"/><path d="M620.6,186.6 L607.6,186.1" stroke="#91503A" stroke-width="2.0" stroke-linecap="round" opacity="0.32"/><path d="M855.3,574.0 L855.0,567.6" stroke="#91503A" stroke-width="1.0" stroke-linecap="round" opacity="0.21"/><path d="M367.5,565.9 L368.2,573.0" stroke="#DDA081" stroke-width="1.4" stroke-linecap="round" opacity="0.21"/><path d="M371.4,406.3 L372.3,414.1" stroke="#DDA081" stroke-width="2.0" stroke-linecap="round" opacity="0.24"/><path d="M355.2,531.8 L356.6,546.0" stroke="#DDA081" stroke-width="2.3" stroke-linecap="round" opacity="0.28"/><path d="M881.6,605.3 L881.4,598.3" stroke="#91503A" stroke-width="1.2" stroke-linecap="round" opacity="0.21"/><path d="M639.7,214.7 L628.1,212.9" stroke="#91503A" stroke-width="1.8" stroke-linecap="round" opacity="0.23"/><path d="M820.2,449.6 L820.1,438.5" stroke="#DDA081" stroke-width="2.2" stroke-linecap="round" opacity="0.26"/><path d="M879.7,484.4 L879.5,473.2" stroke="#91503A" stroke-width="2.0" stroke-linecap="round" opacity="0.29"/><path d="M349.9,499.0 L350.4,502.5" stroke="#DDA081" stroke-width="1.0" stroke-linecap="round" opacity="0.27"/><path d="M839.8,300.2 L834.8,294.0" stroke="#91503A" stroke-width="2.3" stroke-linecap="round" opacity="0.26"/><path d="M754.8,268.9 L749.3,262.1" stroke="#91503A" stroke-width="1.6" stroke-linecap="round" opacity="0.20"/><path d="M403.7,360.7 L402.7,366.7" stroke="#91503A" stroke-width="1.0" stroke-linecap="round" opacity="0.22"/><path d="M816.6,656.9 L815.7,649.8" stroke="#91503A" stroke-width="2.0" stroke-linecap="round" opacity="0.26"/><path d="M764.1,219.1 L757.2,214.2" stroke="#DDA081" stroke-width="1.4" stroke-linecap="round" opacity="0.28"/><path d="M337.6,395.0 L337.5,399.1" stroke="#91503A" stroke-width="1.1" stroke-linecap="round" opacity="0.24"/><path d="M378.9,319.3 L377.1,326.4" stroke="#91503A" stroke-width="1.5" stroke-linecap="round" opacity="0.20"/><path d="M597.8,172.7 L588.0,172.8" stroke="#91503A" stroke-width="2.1" stroke-linecap="round" opacity="0.23"/><path d="M811.2,494.3 L810.9,487.8" stroke="#DDA081" stroke-width="1.7" stroke-linecap="round" opacity="0.23"/><path d="M495.4,206.8 L490.1,210.5" stroke="#DDA081" stroke-width="1.5" stroke-linecap="round" opacity="0.20"/><path d="M811.9,455.6 L811.7,445.6" stroke="#91503A" stroke-width="2.1" stroke-linecap="round" opacity="0.15"/><path d="M399.0,410.7 L399.9,419.1" stroke="#DDA081" stroke-width="2.3" stroke-linecap="round" opacity="0.33"/><path d="M797.0,478.9 L796.8,466.4" stroke="#91503A" stroke-width="2.1" stroke-linecap="round" opacity="0.32"/><path d="M377.2,524.6 L378.0,534.9" stroke="#91503A" stroke-width="1.6" stroke-linecap="round" opacity="0.28"/><path d="M806.3,542.7 L806.1,538.2" stroke="#91503A" stroke-width="1.2" stroke-linecap="round" opacity="0.27"/><path d="M463.0,260.2 L455.7,270.0" stroke="#91503A" stroke-width="2.2" stroke-linecap="round" opacity="0.25"/><path d="M825.1,698.8 L824.2,693.7" stroke="#DDA081" stroke-width="1.7" stroke-linecap="round" opacity="0.15"/><path d="M797.4,339.4 L792.8,332.1" stroke="#91503A" stroke-width="2.3" stroke-linecap="round" opacity="0.19"/><path d="M352.7,304.3 L350.3,310.5" stroke="#91503A" stroke-width="1.0" stroke-linecap="round" opacity="0.33"/><path d="M350.0,509.1 L350.7,518.0" stroke="#91503A" stroke-width="1.8" stroke-linecap="round" opacity="0.15"/><path d="M853.6,542.3 L853.5,535.2" stroke="#DDA081" stroke-width="1.1" stroke-linecap="round" opacity="0.23"/><path d="M845.9,747.1 L845.4,741.5" stroke="#91503A" stroke-width="1.1" stroke-linecap="round" opacity="0.29"/><path d="M637.0,208.5 L628.1,207.3" stroke="#DDA081" stroke-width="2.2" stroke-linecap="round" opacity="0.23"/><path d="M847.0,569.5 L846.5,556.7" stroke="#91503A" stroke-width="2.0" stroke-linecap="round" opacity="0.27"/><path d="M840.6,671.3 L839.9,667.0" stroke="#91503A" stroke-width="1.5" stroke-linecap="round" opacity="0.28"/><path d="M848.3,335.3 L846.7,327.8" stroke="#91503A" stroke-width="1.6" stroke-linecap="round" opacity="0.17"/><path d="M349.0,517.9 L349.7,525.9" stroke="#91503A" stroke-width="1.4" stroke-linecap="round" opacity="0.26"/><path d="M625.3,198.2 L617.1,196.6" stroke="#91503A" stroke-width="2.2" stroke-linecap="round" opacity="0.33"/><path d="M461.5,206.1 L457.3,211.9" stroke="#DDA081" stroke-width="1.7" stroke-linecap="round" opacity="0.23"/><path d="M432.5,316.3 L430.4,322.8" stroke="#DDA081" stroke-width="1.1" stroke-linecap="round" opacity="0.24"/><path d="M860.6,298.7 L857.9,292.1" stroke="#91503A" stroke-width="1.2" stroke-linecap="round" opacity="0.29"/><path d="M880.7,348.3 L878.1,339.6" stroke="#DDA081" stroke-width="1.7" stroke-linecap="round" opacity="0.19"/><path d="M392.6,421.2 L393.2,428.9" stroke="#91503A" stroke-width="1.2" stroke-linecap="round" opacity="0.15"/><path d="M395.1,562.7 L395.5,566.9" stroke="#91503A" stroke-width="0.8" stroke-linecap="round" opacity="0.19"/><path d="M801.7,256.6 L791.1,246.4" stroke="#91503A" stroke-width="2.6" stroke-linecap="round" opacity="0.30"/><path d="M832.3,699.2 L831.6,691.2" stroke="#DDA081" stroke-width="2.3" stroke-linecap="round" opacity="0.17"/><path d="M837.4,555.2 L837.0,550.9" stroke="#DDA081" stroke-width="1.2" stroke-linecap="round" opacity="0.33"/><path d="M691.1,222.2 L684.5,218.5" stroke="#91503A" stroke-width="1.3" stroke-linecap="round" opacity="0.28"/><path d="M620.6,130.4 L616.3,129.9" stroke="#DDA081" stroke-width="1.1" stroke-linecap="round" opacity="0.17"/><path d="M799.7,452.1 L799.5,444.4" stroke="#91503A" stroke-width="2.0" stroke-linecap="round" opacity="0.25"/><path d="M810.4,311.1 L803.0,296.5" stroke="#DDA081" stroke-width="2.6" stroke-linecap="round" opacity="0.33"/><path d="M393.9,219.3 L388.1,227.8" stroke="#DDA081" stroke-width="2.5" stroke-linecap="round" opacity="0.20"/><path d="M363.6,483.8 L364.2,493.9" stroke="#91503A" stroke-width="2.3" stroke-linecap="round" opacity="0.23"/><path d="M368.3,566.1 L368.8,571.6" stroke="#DDA081" stroke-width="1.2" stroke-linecap="round" opacity="0.18"/><path d="M873.3,369.3 L872.1,358.8" stroke="#91503A" stroke-width="2.4" stroke-linecap="round" opacity="0.19"/><path d="M890.5,737.1 L889.9,731.7" stroke="#DDA081" stroke-width="1.1" stroke-linecap="round" opacity="0.34"/><path d="M370.3,511.1 L371.1,522.8" stroke="#91503A" stroke-width="2.0" stroke-linecap="round" opacity="0.19"/><path d="M352.6,481.0 L353.8,488.1" stroke="#91503A" stroke-width="2.2" stroke-linecap="round" opacity="0.33"/><path d="M364.1,478.0 L364.8,493.0" stroke="#DDA081" stroke-width="2.5" stroke-linecap="round" opacity="0.18"/><path d="M649.6,206.4 L644.8,204.6" stroke="#91503A" stroke-width="1.6" stroke-linecap="round" opacity="0.32"/><path d="M831.1,269.9 L826.4,261.8" stroke="#91503A" stroke-width="1.9" stroke-linecap="round" opacity="0.23"/><path d="M828.9,586.1 L828.0,576.2" stroke="#DDA081" stroke-width="2.2" stroke-linecap="round" opacity="0.24"/><path d="M875.7,726.8 L874.3,719.4" stroke="#91503A" stroke-width="2.3" stroke-linecap="round" opacity="0.28"/><path d="M775.3,311.4 L771.1,301.9" stroke="#91503A" stroke-width="1.8" stroke-linecap="round" opacity="0.24"/><path d="M382.0,479.3 L382.3,484.7" stroke="#DDA081" stroke-width="0.9" stroke-linecap="round" opacity="0.22"/><path d="M724.0,221.3 L713.9,213.9" stroke="#91503A" stroke-width="2.1" stroke-linecap="round" opacity="0.19"/><path d="M806.2,278.5 L800.1,273.6" stroke="#91503A" stroke-width="1.9" stroke-linecap="round" opacity="0.14"/><path d="M768.3,216.4 L764.2,212.6" stroke="#91503A" stroke-width="1.4" stroke-linecap="round" opacity="0.28"/><path d="M404.1,463.2 L404.8,472.2" stroke="#DDA081" stroke-width="1.9" stroke-linecap="round" opacity="0.30"/><path d="M864.2,695.7 L863.0,689.8" stroke="#DDA081" stroke-width="2.1" stroke-linecap="round" opacity="0.19"/><path d="M386.0,226.9 L377.8,232.6" stroke="#91503A" stroke-width="2.2" stroke-linecap="round" opacity="0.30"/><path d="M878.0,563.9 L877.1,554.7" stroke="#DDA081" stroke-width="2.3" stroke-linecap="round" opacity="0.30"/><path d="M386.2,479.6 L387.3,489.5" stroke="#91503A" stroke-width="1.8" stroke-linecap="round" opacity="0.16"/><path d="M670.0,163.2 L659.0,160.6" stroke="#DDA081" stroke-width="1.7" stroke-linecap="round" opacity="0.18"/><path d="M869.0,719.7 L868.5,713.4" stroke="#91503A" stroke-width="1.6" stroke-linecap="round" opacity="0.31"/><path d="M372.8,316.8 L369.5,327.2" stroke="#91503A" stroke-width="1.9" stroke-linecap="round" opacity="0.33"/><path d="M390.9,424.9 L391.6,432.8" stroke="#91503A" stroke-width="2.0" stroke-linecap="round" opacity="0.17"/><path d="M791.2,321.0 L788.2,312.6" stroke="#91503A" stroke-width="1.8" stroke-linecap="round" opacity="0.29"/><path d="M635.2,175.6 L624.2,173.9" stroke="#DDA081" stroke-width="1.9" stroke-linecap="round" opacity="0.25"/><path d="M355.1,420.8 L355.8,427.4" stroke="#DDA081" stroke-width="1.1" stroke-linecap="round" opacity="0.30"/><path d="M520.9,173.9 L513.7,177.4" stroke="#91503A" stroke-width="2.2" stroke-linecap="round" opacity="0.21"/><path d="M334.1,437.5 L334.7,444.3" stroke="#91503A" stroke-width="1.1" stroke-linecap="round" opacity="0.26"/><path d="M836.8,351.2 L834.4,341.8" stroke="#DDA081" stroke-width="2.4" stroke-linecap="round" opacity="0.14"/><path d="M372.9,532.1 L374.1,539.4" stroke="#91503A" stroke-width="2.2" stroke-linecap="round" opacity="0.21"/><path d="M721.5,255.4 L713.3,249.4" stroke="#91503A" stroke-width="1.7" stroke-linecap="round" opacity="0.16"/><path d="M836.9,721.7 L836.3,717.7" stroke="#91503A" stroke-width="1.0" stroke-linecap="round" opacity="0.16"/><path d="M327.4,434.6 L328.0,442.6" stroke="#DDA081" stroke-width="2.4" stroke-linecap="round" opacity="0.33"/><path d="M446.4,283.8 L438.2,289.9" stroke="#91503A" stroke-width="2.4" stroke-linecap="round" opacity="0.18"/><path d="M368.3,350.4 L366.4,362.7" stroke="#91503A" stroke-width="2.1" stroke-linecap="round" opacity="0.32"/><path d="M849.0,621.3 L848.5,613.9" stroke="#91503A" stroke-width="1.2" stroke-linecap="round" opacity="0.17"/><path d="M565.6,123.2 L554.8,124.6" stroke="#91503A" stroke-width="1.9" stroke-linecap="round" opacity="0.17"/><path d="M398.0,527.1 L398.5,532.0" stroke="#91503A" stroke-width="1.1" stroke-linecap="round" opacity="0.20"/><path d="M856.8,415.6 L856.7,408.4" stroke="#91503A" stroke-width="1.9" stroke-linecap="round" opacity="0.17"/><path d="M369.9,447.3 L370.2,453.3" stroke="#91503A" stroke-width="1.0" stroke-linecap="round" opacity="0.23"/><path d="M765.9,273.2 L762.5,270.0" stroke="#91503A" stroke-width="1.2" stroke-linecap="round" opacity="0.30"/><path d="M391.5,442.8 L392.2,448.6" stroke="#91503A" stroke-width="1.7" stroke-linecap="round" opacity="0.15"/><path d="M881.8,378.6 L880.5,367.0" stroke="#91503A" stroke-width="2.0" stroke-linecap="round" opacity="0.19"/><path d="M412.4,242.6 L404.8,248.6" stroke="#91503A" stroke-width="2.2" stroke-linecap="round" opacity="0.21"/><path d="M787.0,351.2 L784.2,344.4" stroke="#91503A" stroke-width="1.8" stroke-linecap="round" opacity="0.33"/><path d="M654.4,161.9 L649.2,160.8" stroke="#DDA081" stroke-width="1.2" stroke-linecap="round" opacity="0.30"/><path d="M834.2,507.9 L833.9,500.5" stroke="#91503A" stroke-width="2.4" stroke-linecap="round" opacity="0.14"/><path d="M653.6,126.6 L643.4,125.2" stroke="#91503A" stroke-width="1.6" stroke-linecap="round" opacity="0.25"/><path d="M369.7,411.6 L371.0,420.1" stroke="#91503A" stroke-width="2.6" stroke-linecap="round" opacity="0.14"/><path d="M814.4,537.4 L813.9,526.6" stroke="#91503A" stroke-width="1.6" stroke-linecap="round" opacity="0.33"/><path d="M788.0,281.1 L781.5,273.2" stroke="#91503A" stroke-width="2.4" stroke-linecap="round" opacity="0.22"/><path d="M861.0,564.5 L860.6,559.2" stroke="#91503A" stroke-width="1.3" stroke-linecap="round" opacity="0.32"/><path d="M881.8,652.1 L881.5,645.4" stroke="#91503A" stroke-width="1.0" stroke-linecap="round" opacity="0.21"/><path d="M386.8,413.3 L387.7,428.5" stroke="#91503A" stroke-width="2.4" stroke-linecap="round" opacity="0.33"/><path d="M686.8,216.5 L680.8,214.0" stroke="#91503A" stroke-width="1.1" stroke-linecap="round" opacity="0.28"/><path d="M482.5,152.0 L478.4,153.7" stroke="#91503A" stroke-width="0.9" stroke-linecap="round" opacity="0.23"/><path d="M830.2,391.0 L829.7,384.9" stroke="#91503A" stroke-width="2.0" stroke-linecap="round" opacity="0.18"/><path d="M758.0,293.7 L752.9,281.4" stroke="#91503A" stroke-width="2.5" stroke-linecap="round" opacity="0.14"/><path d="M849.7,436.9 L849.6,426.5" stroke="#DDA081" stroke-width="2.0" stroke-linecap="round" opacity="0.18"/><path d="M384.9,519.7 L385.1,523.3" stroke="#DDA081" stroke-width="0.9" stroke-linecap="round" opacity="0.23"/><path d="M389.1,442.3 L390.0,448.6" stroke="#91503A" stroke-width="2.1" stroke-linecap="round" opacity="0.16"/><path d="M340.0,443.0 L340.6,448.4" stroke="#DDA081" stroke-width="1.2" stroke-linecap="round" opacity="0.15"/><path d="M812.2,314.3 L809.6,308.7" stroke="#91503A" stroke-width="1.2" stroke-linecap="round" opacity="0.32"/><path d="M796.6,543.8 L796.1,529.6" stroke="#91503A" stroke-width="2.3" stroke-linecap="round" opacity="0.15"/><path d="M430.6,225.0 L426.0,233.8" stroke="#91503A" stroke-width="2.1" stroke-linecap="round" opacity="0.22"/><path d="M830.1,518.4 L829.8,512.7" stroke="#91503A" stroke-width="1.3" stroke-linecap="round" opacity="0.22"/><path d="M365.9,536.2 L366.6,544.5" stroke="#91503A" stroke-width="1.6" stroke-linecap="round" opacity="0.15"/><path d="M884.7,500.3 L884.6,494.8" stroke="#91503A" stroke-width="1.2" stroke-linecap="round" opacity="0.33"/><path d="M860.6,375.4 L860.1,370.8" stroke="#91503A" stroke-width="1.2" stroke-linecap="round" opacity="0.21"/><path d="M849.8,650.8 L849.2,637.9" stroke="#91503A" stroke-width="2.1" stroke-linecap="round" opacity="0.14"/><path d="M394.1,402.3 L395.0,416.9" stroke="#91503A" stroke-width="2.6" stroke-linecap="round" opacity="0.31"/><path d="M365.2,541.1 L366.3,551.0" stroke="#91503A" stroke-width="1.7" stroke-linecap="round" opacity="0.31"/><path d="M336.8,474.6 L337.2,481.1" stroke="#DDA081" stroke-width="1.5" stroke-linecap="round" opacity="0.34"/><path d="M518.1,182.1 L514.0,184.8" stroke="#91503A" stroke-width="1.3" stroke-linecap="round" opacity="0.23"/><path d="M361.6,357.4 L358.9,366.8" stroke="#DDA081" stroke-width="2.2" stroke-linecap="round" opacity="0.22"/><path d="M396.5,217.9 L392.8,225.3" stroke="#DDA081" stroke-width="1.6" stroke-linecap="round" opacity="0.31"/><path d="M342.8,442.7 L343.6,448.1" stroke="#91503A" stroke-width="1.2" stroke-linecap="round" opacity="0.18"/><path d="M798.3,353.5 L797.6,348.9" stroke="#91503A" stroke-width="0.9" stroke-linecap="round" opacity="0.30"/><path d="M389.2,424.4 L389.5,428.2" stroke="#91503A" stroke-width="1.0" stroke-linecap="round" opacity="0.20"/><path d="M881.3,661.1 L880.4,652.9" stroke="#91503A" stroke-width="1.5" stroke-linecap="round" opacity="0.23"/><path d="M368.5,443.8 L369.2,456.9" stroke="#91503A" stroke-width="2.3" stroke-linecap="round" opacity="0.15"/><path d="M355.2,532.6 L356.2,544.0" stroke="#91503A" stroke-width="2.5" stroke-linecap="round" opacity="0.15"/><path d="M628.7,215.6 L619.4,214.0" stroke="#91503A" stroke-width="1.8" stroke-linecap="round" opacity="0.29"/><path d="M834.2,733.7 L833.7,727.6" stroke="#91503A" stroke-width="1.2" stroke-linecap="round" opacity="0.24"/><path d="M717.3,175.6 L706.7,168.3" stroke="#91503A" stroke-width="2.5" stroke-linecap="round" opacity="0.23"/><path d="M443.2,293.7 L439.0,301.8" stroke="#91503A" stroke-width="2.2" stroke-linecap="round" opacity="0.16"/><path d="M680.5,200.6 L673.5,199.3" stroke="#91503A" stroke-width="1.2" stroke-linecap="round" opacity="0.21"/><path d="M785.1,311.3 L780.4,301.1" stroke="#DDA081" stroke-width="2.3" stroke-linecap="round" opacity="0.33"/><path d="M696.6,236.5 L692.1,233.8" stroke="#DDA081" stroke-width="1.8" stroke-linecap="round" opacity="0.21"/><path d="M532.2,212.1 L529.5,213.2" stroke="#91503A" stroke-width="0.8" stroke-linecap="round" opacity="0.20"/><path d="M390.1,482.7 L390.7,497.1" stroke="#91503A" stroke-width="2.1" stroke-linecap="round" opacity="0.19"/><path d="M860.6,329.3 L859.6,323.0" stroke="#91503A" stroke-width="1.0" stroke-linecap="round" opacity="0.30"/><path d="M871.9,360.9 L871.4,355.6" stroke="#DDA081" stroke-width="1.0" stroke-linecap="round" opacity="0.25"/><path d="M453.2,244.2 L443.7,251.1" stroke="#DDA081" stroke-width="2.4" stroke-linecap="round" opacity="0.30"/><path d="M350.2,469.5 L350.5,472.5" stroke="#91503A" stroke-width="0.9" stroke-linecap="round" opacity="0.17"/><path d="M354.7,526.7 L355.8,535.1" stroke="#91503A" stroke-width="2.5" stroke-linecap="round" opacity="0.33"/><path d="M408.8,283.5 L406.6,291.7" stroke="#91503A" stroke-width="1.5" stroke-linecap="round" opacity="0.18"/><path d="M711.1,242.4 L703.3,237.8" stroke="#91503A" stroke-width="2.5" stroke-linecap="round" opacity="0.25"/><path d="M372.9,563.3 L373.8,575.5" stroke="#91503A" stroke-width="2.4" stroke-linecap="round" opacity="0.30"/><path d="M855.7,365.2 L853.8,352.7" stroke="#91503A" stroke-width="2.1" stroke-linecap="round" opacity="0.27"/><path d="M672.6,233.0 L668.5,231.5" stroke="#DDA081" stroke-width="1.0" stroke-linecap="round" opacity="0.26"/><path d="M399.0,524.8 L399.9,528.6" stroke="#DDA081" stroke-width="1.3" stroke-linecap="round" opacity="0.25"/><path d="M385.3,473.2 L385.7,479.3" stroke="#DDA081" stroke-width="1.1" stroke-linecap="round" opacity="0.30"/><path d="M370.5,565.6 L371.6,580.3" stroke="#DDA081" stroke-width="2.5" stroke-linecap="round" opacity="0.16"/><path d="M814.9,637.0 L814.3,630.0" stroke="#DDA081" stroke-width="1.9" stroke-linecap="round" opacity="0.19"/><path d="M413.0,196.4 L407.3,200.2" stroke="#DDA081" stroke-width="1.2" stroke-linecap="round" opacity="0.17"/><path d="M599.6,211.6 L595.3,211.8" stroke="#91503A" stroke-width="1.4" stroke-linecap="round" opacity="0.22"/><path d="M834.0,712.3 L833.6,705.9" stroke="#DDA081" stroke-width="1.5" stroke-linecap="round" opacity="0.24"/><path d="M348.9,492.6 L349.9,501.3" stroke="#91503A" stroke-width="1.8" stroke-linecap="round" opacity="0.33"/><path d="M360.9,448.8 L361.8,459.6" stroke="#91503A" stroke-width="1.9" stroke-linecap="round" opacity="0.18"/><path d="M621.7,183.7 L609.3,182.5" stroke="#DDA081" stroke-width="2.6" stroke-linecap="round" opacity="0.26"/><path d="M842.8,325.2 L840.8,316.5" stroke="#91503A" stroke-width="1.7" stroke-linecap="round" opacity="0.22"/><path d="M394.5,324.2 L392.5,332.7" stroke="#DDA081" stroke-width="1.6" stroke-linecap="round" opacity="0.23"/><path d="M840.7,442.6 L840.6,431.6" stroke="#91503A" stroke-width="2.2" stroke-linecap="round" opacity="0.14"/><path d="M425.1,296.7 L420.2,306.7" stroke="#91503A" stroke-width="2.4" stroke-linecap="round" opacity="0.22"/><path d="M399.9,488.6 L400.5,497.7" stroke="#DDA081" stroke-width="2.2" stroke-linecap="round" opacity="0.15"/><path d="M400.1,538.3 L400.7,547.2" stroke="#91503A" stroke-width="1.7" stroke-linecap="round" opacity="0.27"/><path d="M420.2,325.6 L417.3,340.0" stroke="#91503A" stroke-width="2.4" stroke-linecap="round" opacity="0.28"/><path d="M360.7,470.7 L362.1,478.4" stroke="#DDA081" stroke-width="2.6" stroke-linecap="round" opacity="0.24"/><path d="M795.3,417.4 L795.3,413.3" stroke="#91503A" stroke-width="0.9" stroke-linecap="round" opacity="0.21"/><path d="M369.8,549.4 L370.8,554.8" stroke="#91503A" stroke-width="1.6" stroke-linecap="round" opacity="0.33"/><path d="M395.8,486.3 L396.9,497.4" stroke="#91503A" stroke-width="1.9" stroke-linecap="round" opacity="0.16"/><path d="M876.5,476.6 L876.3,470.6" stroke="#91503A" stroke-width="1.3" stroke-linecap="round" opacity="0.22"/><path d="M822.0,647.3 L821.0,640.3" stroke="#DDA081" stroke-width="2.3" stroke-linecap="round" opacity="0.31"/><path d="M349.7,442.0 L350.4,446.0" stroke="#91503A" stroke-width="1.2" stroke-linecap="round" opacity="0.33"/><path d="M740.6,232.6 L736.5,230.4" stroke="#DDA081" stroke-width="1.3" stroke-linecap="round" opacity="0.17"/><path d="M792.8,474.0 L792.6,462.3" stroke="#91503A" stroke-width="2.1" stroke-linecap="round" opacity="0.23"/><path d="M353.1,358.0 L351.6,366.6" stroke="#DDA081" stroke-width="2.2" stroke-linecap="round" opacity="0.30"/><path d="M885.2,399.5 L884.8,390.7" stroke="#DDA081" stroke-width="1.6" stroke-linecap="round" opacity="0.22"/><path d="M415.3,300.7 L412.2,305.5" stroke="#91503A" stroke-width="1.4" stroke-linecap="round" opacity="0.33"/><path d="M865.0,662.7 L864.6,652.7" stroke="#DDA081" stroke-width="1.8" stroke-linecap="round" opacity="0.25"/><path d="M828.0,550.3 L827.7,543.7" stroke="#91503A" stroke-width="1.1" stroke-linecap="round" opacity="0.23"/><path d="M842.4,585.2 L842.1,580.4" stroke="#DDA081" stroke-width="1.4" stroke-linecap="round" opacity="0.16"/><path d="M339.4,435.1 L339.9,442.2" stroke="#DDA081" stroke-width="1.1" stroke-linecap="round" opacity="0.24"/><path d="M821.2,411.3 L821.1,403.5" stroke="#91503A" stroke-width="2.4" stroke-linecap="round" opacity="0.34"/><path d="M742.7,173.0 L734.5,169.6" stroke="#DDA081" stroke-width="1.5" stroke-linecap="round" opacity="0.24"/><path d="M832.2,549.3 L831.7,535.5" stroke="#91503A" stroke-width="2.3" stroke-linecap="round" opacity="0.34"/><path d="M449.4,229.1 L445.2,230.9" stroke="#DDA081" stroke-width="0.8" stroke-linecap="round" opacity="0.32"/><path d="M875.5,470.0 L875.3,458.9" stroke="#DDA081" stroke-width="2.6" stroke-linecap="round" opacity="0.15"/><path d="M353.6,419.2 L354.2,430.2" stroke="#91503A" stroke-width="1.8" stroke-linecap="round" opacity="0.25"/><path d="M488.1,228.3 L481.3,231.0" stroke="#91503A" stroke-width="1.2" stroke-linecap="round" opacity="0.22"/><path d="M838.6,457.4 L838.5,451.4" stroke="#91503A" stroke-width="1.2" stroke-linecap="round" opacity="0.30"/><path d="M808.1,220.0 L799.0,214.1" stroke="#91503A" stroke-width="2.4" stroke-linecap="round" opacity="0.31"/><path d="M576.6,129.0 L572.6,129.3" stroke="#DDA081" stroke-width="1.0" stroke-linecap="round" opacity="0.20"/><path d="M505.5,149.2 L498.2,152.1" stroke="#91503A" stroke-width="1.4" stroke-linecap="round" opacity="0.28"/><path d="M336.0,413.8 L337.0,425.9" stroke="#DDA081" stroke-width="2.3" stroke-linecap="round" opacity="0.22"/><path d="M595.7,152.2 L587.2,152.8" stroke="#DDA081" stroke-width="2.2" stroke-linecap="round" opacity="0.24"/><path d="M386.4,571.4 L387.9,579.3" stroke="#91503A" stroke-width="2.3" stroke-linecap="round" opacity="0.24"/><path d="M879.1,743.0 L878.0,729.2" stroke="#DDA081" stroke-width="2.1" stroke-linecap="round" opacity="0.29"/><path d="M824.7,316.5 L821.6,304.4" stroke="#91503A" stroke-width="2.2" stroke-linecap="round" opacity="0.14"/><path d="M780.4,331.0 L776.4,321.7" stroke="#91503A" stroke-width="1.8" stroke-linecap="round" opacity="0.18"/><path d="M796.1,267.5 L789.0,257.8" stroke="#91503A" stroke-width="1.8" stroke-linecap="round" opacity="0.32"/><path d="M374.6,451.2 L375.6,459.0" stroke="#DDA081" stroke-width="2.6" stroke-linecap="round" opacity="0.24"/><path d="M718.4,249.5 L709.8,242.7" stroke="#91503A" stroke-width="2.4" stroke-linecap="round" opacity="0.26"/><path d="M881.1,595.1 L880.7,587.4" stroke="#DDA081" stroke-width="1.6" stroke-linecap="round" opacity="0.30"/><path d="M833.7,576.3 L832.9,569.4" stroke="#91503A" stroke-width="2.2" stroke-linecap="round" opacity="0.18"/></g><path d="M415.2,386.6 L414.6,393.2 L414.2,399.1 L414.0,404.2 L414.0,403.4 L414.2,406.4 L414.4,409.3 L414.7,412.3 L415.0,415.3 L415.3,418.2 L415.6,421.2 L415.9,424.1 L416.3,427.1 L416.7,430.1 L417.0,433.0 L417.4,436.0 L417.5,436.0 L417.4,433.0 L417.2,430.0 L417.0,427.0 L416.8,424.1 L416.6,421.1 L416.3,418.1 L416.1,415.2 L415.8,412.2 L415.5,409.2 L415.2,406.3 L414.8,403.3 L414.7,404.2 L414.7,399.1 L414.9,393.2 L415.3,386.6 Z" fill="#BD6B4D" opacity="0.70"/><path d="M454.1,303.5 L450.4,308.8 L447.3,313.6 L444.4,318.4 L441.7,323.4 L439.2,328.5 L436.9,333.6 L434.8,338.9 L432.9,344.2 L430.8,350.4 L430.9,350.4 L433.2,344.3 L435.3,339.1 L437.5,333.9 L439.9,328.8 L442.4,323.7 L445.0,318.8 L447.8,313.9 L450.7,309.0 L454.2,303.5 Z" fill="#BD6B4D" opacity="0.60"/><path d="M335.1,479.6 L335.3,482.6 L335.4,485.6 L335.6,488.6 L335.8,491.5 L336.1,494.5 L336.4,497.5 L336.8,500.4 L337.2,503.4 L337.6,506.3 L337.8,506.3 L337.6,503.3 L337.5,500.3 L337.3,497.4 L337.1,494.4 L336.8,491.4 L336.5,488.5 L336.1,485.5 L335.7,482.6 L335.3,479.6 Z" fill="#BD6B4D" opacity="0.79"/><path d="M656.7,244.3 L650.6,242.3 L645.4,240.7 L640.2,239.2 L634.9,238.0 L629.6,236.9 L624.3,236.0 L618.9,235.3 L613.5,234.7 L608.1,234.3 L602.7,234.1 L597.3,234.1 L591.9,234.3 L586.5,234.6 L581.1,235.1 L575.7,235.8 L570.3,236.7 L565.0,237.8 L559.7,239.0 L554.5,240.4 L549.3,242.0 L544.2,243.7 L539.1,245.6 L534.1,247.7 L529.2,249.9 L524.3,252.3 L518.6,255.3 L518.7,255.4 L524.4,252.5 L529.3,250.3 L534.3,248.2 L539.3,246.2 L544.4,244.4 L549.6,242.8 L554.8,241.3 L560.0,240.0 L565.2,238.9 L570.5,237.9 L575.9,237.1 L581.2,236.4 L586.6,235.9 L591.9,235.5 L597.3,235.3 L602.7,235.3 L608.1,235.5 L613.5,235.8 L618.8,236.2 L624.2,236.9 L629.5,237.7 L634.8,238.6 L640.1,239.8 L645.3,241.1 L650.5,242.5 L656.7,244.5 Z" fill="#BD6B4D" opacity="0.90"/><path d="M473.7,275.5 L469.0,280.1 L464.9,284.2 L461.1,288.4 L457.4,292.8 L453.9,297.4 L450.6,302.1 L447.4,307.0 L444.5,311.9 L441.8,317.0 L438.8,322.9 L438.9,322.9 L442.2,317.2 L445.2,312.3 L448.3,307.5 L451.6,302.8 L454.9,298.2 L458.3,293.6 L461.9,289.1 L465.5,284.7 L469.3,280.4 L473.8,275.6 Z" fill="#BD6B4D" opacity="0.60"/><path d="M417.1,386.7 L416.4,393.3 L416.0,399.2 L415.9,404.2 L415.9,403.2 L416.2,406.2 L416.5,409.1 L416.8,412.1 L417.2,415.1 L417.6,418.0 L417.7,418.0 L417.6,415.0 L417.4,412.0 L417.2,409.1 L417.0,406.1 L416.7,403.1 L416.6,404.2 L416.6,399.2 L416.8,393.4 L417.2,386.7 Z" fill="#BD6B4D" opacity="0.71"/><path d="M411.9,386.3 L411.3,393.0 L410.9,399.0 L410.8,404.3 L410.8,403.7 L411.0,406.7 L411.3,409.6 L411.5,412.6 L411.7,415.6 L412.0,418.5 L412.3,421.5 L412.6,424.5 L412.9,427.4 L413.2,430.4 L413.5,433.4 L413.8,436.3 L414.1,439.3 L414.5,442.2 L414.8,445.2 L415.2,448.2 L415.5,451.1 L415.7,451.1 L415.4,448.1 L415.2,445.2 L415.0,442.2 L414.8,439.2 L414.6,436.2 L414.4,433.3 L414.1,430.3 L413.9,427.3 L413.6,424.4 L413.3,421.4 L413.0,418.4 L412.7,415.5 L412.4,412.5 L412.1,409.5 L411.8,406.6 L411.5,403.6 L411.3,404.3 L411.4,399.0 L411.6,393.0 L412.0,386.3 Z" fill="#BD6B4D" opacity="0.79"/><g fill="#2B2820"><g transform="translate(102,760)"><path d="M30.9 -90.6Q21.599999999999998 -90.6 16.049999999999997 -85.125Q10.5 -79.64999999999999 7.5 -68.39999999999999Q7.5 -68.1 6.675 -68.1Q5.85 -68.1 5.85 -68.55Q6.1499999999999995 -70.5 6.449999999999999 -74.175Q6.75 -77.85 7.125 -82.125Q7.5 -86.39999999999999 7.725 -90.44999999999999Q7.949999999999999 -94.5 7.949999999999999 -97.05Q7.949999999999999 -97.8 8.774999999999999 -97.8Q9.6 -97.8 9.6 -97.05Q9.6 -95.55 11.1 -94.875Q12.6 -94.2 14.625 -93.975Q16.65 -93.75 18.0 -93.75Q30.9 -93.3 48.15 -93.3Q58.65 -93.3 64.95 -93.525Q71.25 -93.75 77.1 -93.75Q82.35 -93.75 85.125 -94.425Q87.89999999999999 -95.1 88.64999999999999 -97.5Q88.8 -98.1 89.55 -98.1Q90.3 -98.1 90.3 -97.5Q90.14999999999999 -95.1 89.85 -91.05Q89.55 -87.0 89.4 -82.5Q89.25 -78.0 89.1 -74.175Q88.95 -70.35 88.95 -68.55Q88.95 -68.1 88.125 -68.1Q87.3 -68.1 87.14999999999999 -68.55Q85.8 -80.25 80.475 -85.425Q75.14999999999999 -90.6 65.7 -90.6Q61.199999999999996 -90.6 58.875 -89.925Q56.55 -89.25 55.8 -87.225Q55.05 -85.2 55.05 -81.3V-12.15Q55.05 -7.8 55.95 -5.55Q56.85 -3.3 59.7 -2.55Q62.55 -1.7999999999999998 68.39999999999999 -1.7999999999999998Q68.85 -1.7999999999999998 68.85 -0.8999999999999999Q68.85 0.0 68.39999999999999 0.0Q64.35 0.0 59.25 -0.15Q54.15 -0.3 48.15 -0.3Q42.3 -0.3 37.2 -0.15Q32.1 0.0 27.9 0.0Q27.45 0.0 27.45 -0.8999999999999999Q27.45 -1.7999999999999998 27.9 -1.7999999999999998Q33.6 -1.7999999999999998 36.525 -2.55Q39.449999999999996 -3.3 40.5 -5.55Q41.55 -7.8 41.55 -12.15V-81.6Q41.55 -85.5 40.724999999999994 -87.44999999999999Q39.9 -89.39999999999999 37.65 -90.0Q35.4 -90.6 30.9 -90.6Z"/><path d="M193.25 -81.3Q193.25 -85.64999999999999 192.425 -87.89999999999999Q191.6 -90.14999999999999 188.89999999999998 -91.05Q186.2 -91.95 180.5 -91.95Q180.05 -91.95 180.05 -92.85Q180.05 -93.75 180.5 -93.75Q184.25 -93.75 189.05 -93.525Q193.85 -93.3 200.0 -93.3Q205.25 -93.3 210.275 -93.525Q215.3 -93.75 218.89999999999998 -93.75Q219.35 -93.75 219.35 -92.85Q219.35 -91.95 218.89999999999998 -91.95Q213.64999999999998 -91.95 211.02499999999998 -91.125Q208.39999999999998 -90.3 207.5 -88.125Q206.6 -85.95 206.6 -81.6V-12.15Q206.6 -7.8 207.5 -5.55Q208.39999999999998 -3.3 211.02499999999998 -2.55Q213.64999999999998 -1.7999999999999998 218.89999999999998 -1.7999999999999998Q219.35 -1.7999999999999998 219.35 -0.8999999999999999Q219.35 0.0 218.89999999999998 0.0Q215.3 0.0 210.275 -0.15Q205.25 -0.3 200.0 -0.3Q193.85 -0.3 189.05 -0.15Q184.25 0.0 180.5 0.0Q180.05 0.0 180.05 -0.8999999999999999Q180.05 -1.7999999999999998 180.5 -1.7999999999999998Q186.2 -1.7999999999999998 188.89999999999998 -2.55Q191.6 -3.3 192.425 -5.55Q193.25 -7.8 193.25 -12.15ZM133.4 -46.949999999999996V-50.55H199.25V-46.949999999999996ZM127.25 -12.15V-81.6Q127.25 -85.95 126.35 -88.125Q125.44999999999999 -90.3 122.82499999999999 -91.125Q120.19999999999999 -91.95 114.94999999999999 -91.95Q114.5 -91.95 114.5 -92.85Q114.5 -93.75 114.94999999999999 -93.75Q118.69999999999999 -93.75 123.49999999999999 -93.525Q128.29999999999998 -93.3 133.4 -93.3Q139.7 -93.3 144.575 -93.525Q149.45 -93.75 153.35 -93.75Q153.64999999999998 -93.75 153.64999999999998 -92.85Q153.64999999999998 -91.95 153.35 -91.95Q147.79999999999998 -91.95 145.09999999999997 -91.05Q142.39999999999998 -90.14999999999999 141.42499999999998 -87.89999999999999Q140.45 -85.64999999999999 140.45 -81.3V-12.15Q140.45 -7.8 141.35 -5.55Q142.25 -3.3 145.02499999999998 -2.55Q147.79999999999998 -1.7999999999999998 153.35 -1.7999999999999998Q153.64999999999998 -1.7999999999999998 153.64999999999998 -0.8999999999999999Q153.64999999999998 0.0 153.35 0.0Q149.29999999999998 0.0 144.5 -0.15Q139.7 -0.3 133.4 -0.3Q128.15 -0.3 123.35 -0.15Q118.55 0.0 114.64999999999999 0.0Q114.35 0.0 114.35 -0.8999999999999999Q114.35 -1.7999999999999998 114.64999999999999 -1.7999999999999998Q120.05 -1.7999999999999998 122.675 -2.55Q125.3 -3.3 126.275 -5.55Q127.25 -7.8 127.25 -12.15Z"/><path d="M319.45 0.0Q317.05 0.0 311.725 -5.7Q306.4 -11.4 298.825 -22.125Q291.25 -32.85 281.95 -47.699999999999996L293.2 -51.15Q305.5 -33.0 314.2 -22.125Q322.9 -11.25 329.65 -6.525Q336.4 -1.7999999999999998 342.55 -1.7999999999999998Q342.85 -1.7999999999999998 342.85 -0.8999999999999999Q342.85 0.0 342.55 0.0Q333.4 0.0 327.7 0.0Q322.0 0.0 319.45 0.0ZM284.5 -94.2Q297.4 -94.2 304.29999999999995 -88.95Q311.2 -83.7 311.2 -74.85Q311.2 -66.3 306.4 -59.625Q301.6 -52.949999999999996 293.875 -49.199999999999996Q286.15 -45.449999999999996 277.3 -45.449999999999996Q275.5 -45.449999999999996 273.475 -45.525Q271.45 -45.6 269.65 -45.75V-12.15Q269.65 -7.8 270.475 -5.55Q271.3 -3.3 273.85 -2.55Q276.4 -1.7999999999999998 281.35 -1.7999999999999998Q281.8 -1.7999999999999998 281.8 -0.8999999999999999Q281.8 0.0 281.35 0.0Q277.6 0.0 273.025 -0.15Q268.45 -0.3 262.9 -0.3Q257.65 -0.3 252.925 -0.15Q248.20000000000002 0.0 244.45000000000002 0.0Q244.15 0.0 244.15 -0.8999999999999999Q244.15 -1.7999999999999998 244.45000000000002 -1.7999999999999998Q249.55 -1.7999999999999998 252.025 -2.55Q254.5 -3.3 255.4 -5.55Q256.3 -7.8 256.3 -12.15V-81.6Q256.3 -85.95 255.47500000000002 -88.125Q254.65 -90.3 252.175 -91.125Q249.70000000000002 -91.95 244.75 -91.95Q244.3 -91.95 244.3 -92.85Q244.3 -93.75 244.75 -93.75Q248.35 -93.75 253.0 -93.525Q257.65 -93.3 262.9 -93.3Q267.7 -93.3 273.7 -93.75Q279.7 -94.2 284.5 -94.2ZM297.4 -69.75Q297.4 -78.3 295.29999999999995 -83.025Q293.2 -87.75 289.375 -89.625Q285.55 -91.5 280.45 -91.5Q274.75 -91.5 272.2 -89.4Q269.65 -87.3 269.65 -81.3V-49.65Q271.75 -49.35 274.225 -49.2Q276.7 -49.05 278.5 -49.05Q289.0 -49.05 293.2 -54.15Q297.4 -59.25 297.4 -69.75Z"/><path d="M426.0 0.0H361.35Q361.05 0.0 361.05 -0.8999999999999999Q361.05 -1.7999999999999998 361.35 -1.7999999999999998Q366.45 -1.7999999999999998 368.925 -2.55Q371.40000000000003 -3.3 372.225 -5.55Q373.05 -7.8 373.05 -12.15V-81.6Q373.05 -85.95 372.225 -88.125Q371.40000000000003 -90.3 368.925 -91.125Q366.45 -91.95 361.35 -91.95Q361.05 -91.95 361.05 -92.85Q361.05 -93.75 361.35 -93.75H423.3Q424.8 -93.75 424.8 -92.39999999999999L425.1 -73.2Q425.1 -72.75 424.35 -72.675Q423.6 -72.6 423.3 -73.05Q421.95 -81.45 416.85 -85.725Q411.75 -90.0 403.5 -90.0H396.75Q392.7 -90.0 390.45 -89.175Q388.2 -88.35 387.3 -86.4Q386.40000000000003 -84.45 386.40000000000003 -81.14999999999999V-12.75Q386.40000000000003 -9.45 387.225 -7.424999999999999Q388.05 -5.3999999999999995 390.0 -4.574999999999999Q391.95 -3.75 395.7 -3.75H403.95Q413.55 -3.75 419.55 -8.7Q425.55 -13.65 427.95 -23.099999999999998Q428.1 -23.55 428.925 -23.4Q429.75 -23.25 429.75 -22.8Q429.15 -18.75 428.7 -12.975Q428.25 -7.199999999999999 428.25 -2.25Q428.25 0.0 426.0 0.0ZM417.6 -34.199999999999996Q417.6 -40.5 413.625 -43.724999999999994Q409.65000000000003 -46.949999999999996 401.40000000000003 -46.949999999999996H380.1V-50.55H401.7Q409.8 -50.55 413.625 -53.4Q417.45 -56.25 417.45 -61.65Q417.45 -61.949999999999996 418.275 -61.949999999999996Q419.1 -61.949999999999996 419.1 -61.65Q419.1 -56.85 419.025 -54.225Q418.95 -51.6 418.95 -48.75Q418.95 -45.15 419.17499999999995 -41.7Q419.4 -38.25 419.4 -34.199999999999996Q419.4 -33.9 418.5 -33.9Q417.6 -33.9 417.6 -34.199999999999996Z"/><path d="M474.8 -77.39999999999999Q474.8 -71.55 477.8 -67.19999999999999Q480.8 -62.849999999999994 485.6 -59.474999999999994Q490.40000000000003 -56.1 495.65000000000003 -52.8Q501.35 -49.35 506.45000000000005 -45.525Q511.55 -41.699999999999996 514.925 -36.675Q518.3 -31.65 518.3 -24.45Q518.3 -16.8 514.4 -10.875Q510.5 -4.95 503.45000000000005 -1.5750000000000002Q496.40000000000003 1.7999999999999998 486.65000000000003 1.7999999999999998Q482.6 1.7999999999999998 478.4 1.0499999999999998Q474.2 0.3 470.45 -0.975Q466.7 -2.25 464.15000000000003 -3.9Q463.40000000000003 -4.35 463.02500000000003 -4.875Q462.65000000000003 -5.3999999999999995 462.65000000000003 -6.75L461.45 -28.95Q461.3 -29.7 462.125 -29.775Q462.95 -29.849999999999998 463.1 -29.25Q464.75 -24.599999999999998 467.07500000000005 -19.65Q469.40000000000003 -14.7 472.70000000000005 -10.575Q476.0 -6.45 480.35 -3.9Q484.7 -1.3499999999999999 490.40000000000003 -1.3499999999999999Q494.3 -1.3499999999999999 497.9 -2.6999999999999997Q501.5 -4.05 503.82500000000005 -7.5Q506.15000000000003 -10.95 506.15000000000003 -16.95Q506.15000000000003 -24.15 502.925 -29.099999999999998Q499.7 -34.05 494.75 -37.8Q489.8 -41.55 484.40000000000003 -44.85Q479.15000000000003 -48.15 474.27500000000003 -51.75Q469.40000000000003 -55.35 466.40000000000003 -60.075Q463.40000000000003 -64.8 463.40000000000003 -71.55Q463.40000000000003 -79.8 467.82500000000005 -85.05Q472.25 -90.3 479.07500000000005 -92.85Q485.90000000000003 -95.39999999999999 493.1 -95.39999999999999Q498.05 -95.39999999999999 503.0 -94.5Q507.95 -93.6 511.7 -91.95Q513.05 -91.5 513.5 -90.75Q513.95 -90.0 513.95 -89.1L514.4 -69.45Q514.4 -69.0 513.65 -68.85Q512.9 -68.7 512.75 -69.14999999999999Q512.0 -71.55 510.5 -75.44999999999999Q509.0 -79.35 506.375 -83.25Q503.75 -87.14999999999999 499.70000000000005 -89.85Q495.65000000000003 -92.55 489.95 -92.55Q485.15000000000003 -92.55 481.77500000000003 -90.6Q478.40000000000003 -88.64999999999999 476.6 -85.35Q474.8 -82.05 474.8 -77.39999999999999Z"/><path d="M623.65 -81.3Q623.65 -85.64999999999999 622.825 -87.89999999999999Q622.0 -90.14999999999999 619.3 -91.05Q616.6 -91.95 610.9 -91.95Q610.45 -91.95 610.45 -92.85Q610.45 -93.75 610.9 -93.75Q614.65 -93.75 619.45 -93.525Q624.25 -93.3 630.4 -93.3Q635.65 -93.3 640.675 -93.525Q645.7 -93.75 649.3 -93.75Q649.75 -93.75 649.75 -92.85Q649.75 -91.95 649.3 -91.95Q644.05 -91.95 641.425 -91.125Q638.8 -90.3 637.9 -88.125Q637.0 -85.95 637.0 -81.6V-12.15Q637.0 -7.8 637.9 -5.55Q638.8 -3.3 641.425 -2.55Q644.05 -1.7999999999999998 649.3 -1.7999999999999998Q649.75 -1.7999999999999998 649.75 -0.8999999999999999Q649.75 0.0 649.3 0.0Q645.7 0.0 640.675 -0.15Q635.65 -0.3 630.4 -0.3Q624.25 -0.3 619.45 -0.15Q614.65 0.0 610.9 0.0Q610.45 0.0 610.45 -0.8999999999999999Q610.45 -1.7999999999999998 610.9 -1.7999999999999998Q616.6 -1.7999999999999998 619.3 -2.55Q622.0 -3.3 622.825 -5.55Q623.65 -7.8 623.65 -12.15ZM563.8 -46.949999999999996V-50.55H629.65V-46.949999999999996ZM557.65 -12.15V-81.6Q557.65 -85.95 556.75 -88.125Q555.85 -90.3 553.225 -91.125Q550.6 -91.95 545.35 -91.95Q544.9 -91.95 544.9 -92.85Q544.9 -93.75 545.35 -93.75Q549.1 -93.75 553.9000000000001 -93.525Q558.7 -93.3 563.8 -93.3Q570.1 -93.3 574.975 -93.525Q579.85 -93.75 583.75 -93.75Q584.05 -93.75 584.05 -92.85Q584.05 -91.95 583.75 -91.95Q578.2 -91.95 575.5 -91.05Q572.8 -90.14999999999999 571.825 -87.89999999999999Q570.85 -85.64999999999999 570.85 -81.3V-12.15Q570.85 -7.8 571.75 -5.55Q572.65 -3.3 575.425 -2.55Q578.2 -1.7999999999999998 583.75 -1.7999999999999998Q584.05 -1.7999999999999998 584.05 -0.8999999999999999Q584.05 0.0 583.75 0.0Q579.7 0.0 574.9000000000001 -0.15Q570.1 -0.3 563.8 -0.3Q558.55 -0.3 553.75 -0.15Q548.95 0.0 545.05 0.0Q544.75 0.0 544.75 -0.8999999999999999Q544.75 -1.7999999999999998 545.05 -1.7999999999999998Q550.45 -1.7999999999999998 553.075 -2.55Q555.7 -3.3 556.675 -5.55Q557.65 -7.8 557.65 -12.15Z"/><path d="M723.4499999999999 1.7999999999999998Q712.65 1.7999999999999998 703.875 -2.025Q695.0999999999999 -5.85 688.875 -12.599999999999998Q682.65 -19.349999999999998 679.275 -28.125Q675.9 -36.9 675.9 -46.8Q675.9 -58.949999999999996 680.625 -68.1Q685.3499999999999 -77.25 693.1499999999999 -83.32499999999999Q700.9499999999999 -89.39999999999999 710.25 -92.39999999999999Q719.55 -95.39999999999999 728.6999999999999 -95.39999999999999Q739.8 -95.39999999999999 748.5749999999999 -91.425Q757.3499999999999 -87.45 763.5 -80.7Q769.65 -73.95 772.875 -65.4Q776.0999999999999 -56.85 776.0999999999999 -47.85Q776.0999999999999 -37.35 771.8999999999999 -28.35Q767.6999999999999 -19.349999999999998 760.425 -12.599999999999998Q753.15 -5.85 743.625 -2.025Q734.0999999999999 1.7999999999999998 723.4499999999999 1.7999999999999998ZM728.55 -1.65Q737.8499999999999 -1.65 745.1999999999999 -6.45Q752.55 -11.25 756.8249999999999 -20.7Q761.0999999999999 -30.15 761.0999999999999 -43.5Q761.0999999999999 -57.599999999999994 756.375 -68.4Q751.65 -79.2 743.025 -85.425Q734.4 -91.64999999999999 722.55 -91.64999999999999Q707.55 -91.64999999999999 699.2249999999999 -81.14999999999999Q690.9 -70.64999999999999 690.9 -52.199999999999996Q690.9 -41.4 693.675 -32.175Q696.4499999999999 -22.95 701.4749999999999 -16.05Q706.5 -9.15 713.4 -5.4Q720.3 -1.65 728.55 -1.65Z"/><path d="M827.4499999999999 -81.45V-12.75Q827.4499999999999 -8.85 828.125 -6.9Q828.8 -4.95 831.05 -4.35Q833.3 -3.75 837.65 -3.75H848.15Q858.3499999999999 -3.75 865.25 -9.6Q872.15 -15.45 874.4 -25.2Q874.4 -25.65 875.2249999999999 -25.575Q876.05 -25.5 876.05 -25.05Q875.5999999999999 -20.4 875.1499999999999 -14.024999999999999Q874.6999999999999 -7.6499999999999995 874.6999999999999 -2.25Q874.6999999999999 0.0 872.3 0.0H802.2499999999999Q801.9499999999999 0.0 801.9499999999999 -0.8999999999999999Q801.9499999999999 -1.7999999999999998 802.2499999999999 -1.7999999999999998Q807.3499999999999 -1.7999999999999998 809.8249999999999 -2.55Q812.3 -3.3 813.1999999999999 -5.55Q814.0999999999999 -7.8 814.0999999999999 -12.15V-81.6Q814.0999999999999 -85.95 813.1999999999999 -88.125Q812.3 -90.3 809.8249999999999 -91.125Q807.3499999999999 -91.95 802.2499999999999 -91.95Q801.9499999999999 -91.95 801.9499999999999 -92.85Q801.9499999999999 -93.75 802.2499999999999 -93.75Q805.8499999999999 -93.75 810.6499999999999 -93.525Q815.4499999999999 -93.3 820.55 -93.3Q826.0999999999999 -93.3 830.75 -93.525Q835.4 -93.75 838.9999999999999 -93.75Q839.4499999999999 -93.75 839.4499999999999 -92.85Q839.4499999999999 -91.95 838.9999999999999 -91.95Q834.05 -91.95 831.5749999999999 -91.125Q829.0999999999999 -90.3 828.2749999999999 -88.05Q827.4499999999999 -85.8 827.4499999999999 -81.45Z"/><path d="M939.55 0.6Q934.9 0.6 928.15 0.15Q921.4 -0.3 915.6999999999999 -0.3Q910.4499999999999 -0.3 905.7249999999999 -0.15Q901.0 0.0 897.0999999999999 0.0Q896.8 0.0 896.8 -0.8999999999999999Q896.8 -1.7999999999999998 897.0999999999999 -1.7999999999999998Q902.1999999999999 -1.7999999999999998 904.75 -2.55Q907.3 -3.3 908.1999999999999 -5.55Q909.0999999999999 -7.8 909.0999999999999 -12.15V-81.6Q909.0999999999999 -85.95 908.1999999999999 -88.125Q907.3 -90.3 904.8249999999999 -91.125Q902.3499999999999 -91.95 897.4 -91.95Q896.9499999999999 -91.95 896.9499999999999 -92.85Q896.9499999999999 -93.75 897.4 -93.75Q901.15 -93.75 905.8 -93.525Q910.4499999999999 -93.3 915.6999999999999 -93.3Q920.9499999999999 -93.3 927.0249999999999 -93.675Q933.0999999999999 -94.05 937.4499999999999 -94.05Q953.1999999999999 -94.05 964.8999999999999 -88.05Q976.5999999999999 -82.05 983.125 -71.69999999999999Q989.65 -61.349999999999994 989.65 -48.449999999999996Q989.65 -37.199999999999996 985.75 -28.125Q981.8499999999999 -19.05 974.875 -12.675Q967.9 -6.3 958.75 -2.85Q949.5999999999999 0.6 939.55 0.6ZM938.05 -2.25Q948.6999999999999 -2.25 956.9499999999999 -7.2Q965.1999999999999 -12.15 969.925 -21.75Q974.65 -31.349999999999998 974.65 -45.15Q974.65 -58.05 970.2249999999999 -68.475Q965.8 -78.89999999999999 957.8499999999999 -85.05Q949.9 -91.2 938.8 -91.2Q929.9499999999999 -91.2 926.1999999999999 -89.475Q922.4499999999999 -87.75 922.4499999999999 -81.3V-13.799999999999999Q922.4499999999999 -7.949999999999999 925.375 -5.1Q928.3 -2.25 938.05 -2.25Z"/></g><g transform="translate(301,832)"><path d="M5.776 -19.456Q5.776 -17.898 6.536 -16.796Q7.295999999999999 -15.693999999999999 8.512 -14.838999999999999Q9.728 -13.984 11.096 -13.148Q12.501999999999999 -12.312 13.794 -11.381Q15.086 -10.45 15.940999999999999 -9.177Q16.796 -7.904 16.796 -6.08Q16.796 -4.256 15.864999999999998 -2.774Q14.934 -1.292 13.167 -0.41800000000000004Q11.4 0.45599999999999996 8.93 0.45599999999999996Q7.9799999999999995 0.45599999999999996 6.991999999999999 0.304Q6.004 0.152 5.092 -0.15199999999999997Q4.18 -0.45599999999999996 3.42 -0.9119999999999999Q3.23 -1.026 3.154 -1.197Q3.078 -1.3679999999999999 3.04 -1.634L2.66 -6.992Q2.622 -7.1819999999999995 2.831 -7.201Q3.04 -7.22 3.078 -7.068Q3.382 -5.928 3.9139999999999997 -4.712Q4.446 -3.496 5.263 -2.489Q6.08 -1.482 7.201 -0.855Q8.322 -0.22799999999999998 9.804 -0.22799999999999998Q10.868 -0.22799999999999998 11.856 -0.627Q12.844 -1.026 13.471 -1.9380000000000002Q14.097999999999999 -2.85 14.097999999999999 -4.446Q14.097999999999999 -6.27 13.299999999999999 -7.524Q12.501999999999999 -8.778 11.248 -9.690000000000001Q9.994 -10.602 8.588 -11.437999999999999Q7.258 -12.274 6.023 -13.167Q4.788 -14.06 4.009 -15.257000000000001Q3.23 -16.454 3.23 -18.201999999999998Q3.23 -20.216 4.294 -21.546Q5.358 -22.875999999999998 7.0489999999999995 -23.522Q8.74 -24.168 10.488 -24.168Q11.628 -24.168 12.825 -23.939999999999998Q14.022 -23.712 15.048 -23.294Q15.389999999999999 -23.142 15.504 -22.971Q15.618 -22.8 15.618 -22.61L15.846 -17.974Q15.846 -17.86 15.637 -17.841Q15.427999999999999 -17.822 15.389999999999999 -17.936Q15.276 -18.62 14.915 -19.57Q14.554 -20.52 13.908000000000001 -21.432000000000002Q13.262 -22.344 12.254999999999999 -22.951999999999998Q11.248 -23.56 9.804 -23.56Q8.436 -23.56 7.542999999999999 -22.99Q6.6499999999999995 -22.419999999999998 6.212999999999999 -21.488999999999997Q5.776 -20.558 5.776 -19.456Z"/><path d="M43.296 -23.028Q40.94 -23.028 39.647999999999996 -21.735999999999997Q38.356 -20.444 37.748 -17.556Q37.71 -17.48 37.501000000000005 -17.48Q37.292 -17.48 37.292 -17.556Q37.368 -18.05 37.463 -18.962Q37.558 -19.874 37.634 -20.938Q37.71 -22.002 37.766999999999996 -22.970999999999997Q37.824 -23.939999999999998 37.824 -24.586Q37.824 -24.776 38.052 -24.776Q38.28 -24.776 38.28 -24.586Q38.28 -24.206 38.66 -24.035Q39.04 -23.864 39.515 -23.807000000000002Q39.989999999999995 -23.75 40.332 -23.75Q43.6 -23.636 47.97 -23.636Q50.668 -23.636 52.245000000000005 -23.692999999999998Q53.822 -23.75 55.304 -23.75Q56.596000000000004 -23.75 57.299 -23.921Q58.001999999999995 -24.092 58.192 -24.7Q58.23 -24.852 58.43899999999999 -24.852Q58.647999999999996 -24.852 58.647999999999996 -24.7Q58.572 -24.13 58.515 -23.122999999999998Q58.458 -22.116 58.400999999999996 -21.014Q58.343999999999994 -19.912 58.306 -18.981Q58.268 -18.05 58.268 -17.556Q58.268 -17.48 58.059 -17.48Q57.849999999999994 -17.48 57.849999999999994 -17.556Q57.622 -20.52 56.425 -21.774Q55.227999999999994 -23.028 52.72 -23.028Q51.314 -23.028 50.611000000000004 -22.857Q49.908 -22.686 49.68 -22.192Q49.452 -21.698 49.452 -20.596V-3.078Q49.452 -1.976 49.699 -1.406Q49.946 -0.836 50.706 -0.6459999999999999Q51.466 -0.45599999999999996 53.024 -0.45599999999999996Q53.138 -0.45599999999999996 53.138 -0.22799999999999998Q53.138 0.0 53.024 0.0Q52.036 0.0 50.763 -0.038Q49.489999999999995 -0.076 47.97 -0.076Q46.564 -0.076 45.291 -0.038Q44.018 0.0 42.954 0.0Q42.878 0.0 42.878 -0.22799999999999998Q42.878 -0.45599999999999996 42.954 -0.45599999999999996Q44.474 -0.45599999999999996 45.253 -0.6459999999999999Q46.032 -0.836 46.298 -1.406Q46.564 -1.976 46.564 -3.078V-20.672Q46.564 -21.736 46.336 -22.249000000000002Q46.108 -22.762 45.385999999999996 -22.895Q44.664 -23.028 43.296 -23.028Z"/><path d="M98.752 -19.418Q98.752 -21.317999999999998 97.916 -22.305999999999997Q97.07999999999998 -23.294 95.40799999999999 -23.294Q95.29399999999998 -23.294 95.29399999999998 -23.522Q95.29399999999998 -23.75 95.40799999999999 -23.75Q96.28199999999998 -23.75 97.213 -23.692999999999998Q98.14399999999999 -23.636 99.246 -23.636Q100.196 -23.636 101.127 -23.692999999999998Q102.05799999999999 -23.75 102.81799999999998 -23.75Q102.89399999999999 -23.75 102.89399999999999 -23.522Q102.89399999999999 -23.294 102.81799999999998 -23.294Q101.29799999999999 -23.294 100.51899999999999 -22.305999999999997Q99.74 -21.317999999999998 99.74 -19.418V-8.664Q99.74 -5.776 98.619 -3.7239999999999998Q97.49799999999999 -1.672 95.446 -0.589Q93.39399999999999 0.494 90.65799999999999 0.494Q87.88399999999999 0.494 85.75599999999999 -0.608Q83.62799999999999 -1.71 82.44999999999999 -3.7239999999999998Q81.27199999999999 -5.7379999999999995 81.27199999999999 -8.512V-20.672Q81.27199999999999 -21.774 81.04399999999998 -22.325Q80.81599999999999 -22.875999999999998 80.15099999999998 -23.085Q79.48599999999999 -23.294 78.15599999999999 -23.294Q78.04199999999999 -23.294 78.04199999999999 -23.522Q78.04199999999999 -23.75 78.15599999999999 -23.75Q79.068 -23.75 80.227 -23.692999999999998Q81.386 -23.636 82.678 -23.636Q84.008 -23.636 85.167 -23.692999999999998Q86.326 -23.75 87.19999999999999 -23.75Q87.314 -23.75 87.314 -23.522Q87.314 -23.294 87.19999999999999 -23.294Q85.86999999999999 -23.294 85.20499999999998 -23.066000000000003Q84.53999999999999 -22.838 84.33099999999999 -22.268Q84.12199999999999 -21.698 84.12199999999999 -20.596V-9.842Q84.12199999999999 -5.282 86.11699999999999 -3.002Q88.112 -0.722 91.64599999999999 -0.722Q94.99 -0.722 96.871 -2.8120000000000003Q98.752 -4.902 98.752 -8.626Z"/><path d="M132.28199999999998 0.152Q131.142 0.152 129.48899999999998 0.038Q127.83599999999998 -0.076 126.42999999999999 -0.076Q125.17599999999999 -0.076 123.99799999999999 -0.038Q122.82 0.0 121.86999999999999 0.0Q121.79399999999998 0.0 121.79399999999998 -0.22799999999999998Q121.79399999999998 -0.45599999999999996 121.86999999999999 -0.45599999999999996Q123.19999999999999 -0.45599999999999996 123.88399999999999 -0.6459999999999999Q124.56799999999998 -0.836 124.79599999999999 -1.406Q125.02399999999999 -1.976 125.02399999999999 -3.078V-20.672Q125.02399999999999 -21.774 124.79599999999999 -22.325Q124.56799999999998 -22.875999999999998 123.90299999999999 -23.085Q123.23799999999999 -23.294 121.90799999999999 -23.294Q121.832 -23.294 121.832 -23.522Q121.832 -23.75 121.90799999999999 -23.75Q122.85799999999999 -23.75 124.017 -23.692999999999998Q125.17599999999999 -23.636 126.42999999999999 -23.636Q127.722 -23.636 129.20399999999998 -23.731Q130.68599999999998 -23.826 131.75 -23.826Q135.778 -23.826 138.77999999999997 -22.305999999999997Q141.78199999999998 -20.785999999999998 143.435 -18.163999999999998Q145.088 -15.542 145.088 -12.274Q145.088 -9.424 144.081 -7.125Q143.07399999999998 -4.826 141.28799999999998 -3.211Q139.50199999999998 -1.5959999999999999 137.18399999999997 -0.722Q134.86599999999999 0.152 132.28199999999998 0.152ZM131.902 -0.494Q134.79 -0.494 137.01299999999998 -1.7479999999999998Q139.236 -3.002 140.528 -5.452999999999999Q141.82 -7.904 141.82 -11.437999999999999Q141.82 -14.744 140.623 -17.404Q139.426 -20.064 137.26 -21.641Q135.094 -23.218 132.09199999999998 -23.218Q129.81199999999998 -23.218 128.843 -22.762Q127.874 -22.306 127.874 -20.596V-3.496Q127.874 -1.938 128.634 -1.216Q129.39399999999998 -0.494 131.902 -0.494Z"/><path d="M171.73999999999998 -3.078Q171.73999999999998 -1.976 171.94899999999998 -1.406Q172.158 -0.836 172.84199999999998 -0.6459999999999999Q173.52599999999998 -0.45599999999999996 174.856 -0.45599999999999996Q174.97 -0.45599999999999996 174.97 -0.22799999999999998Q174.97 0.0 174.856 0.0Q173.944 0.0 172.78499999999997 -0.038Q171.62599999999998 -0.076 170.25799999999998 -0.076Q168.96599999999998 -0.076 167.807 -0.038Q166.648 0.0 165.69799999999998 0.0Q165.58399999999997 0.0 165.58399999999997 -0.22799999999999998Q165.58399999999997 -0.45599999999999996 165.69799999999998 -0.45599999999999996Q167.028 -0.45599999999999996 167.712 -0.6459999999999999Q168.396 -0.836 168.62399999999997 -1.406Q168.85199999999998 -1.976 168.85199999999998 -3.078V-20.672Q168.85199999999998 -21.774 168.62399999999997 -22.325Q168.396 -22.875999999999998 167.712 -23.085Q167.028 -23.294 165.69799999999998 -23.294Q165.58399999999997 -23.294 165.58399999999997 -23.522Q165.58399999999997 -23.75 165.69799999999998 -23.75Q166.648 -23.75 167.807 -23.692999999999998Q168.96599999999998 -23.636 170.25799999999998 -23.636Q171.62599999999998 -23.636 172.80399999999997 -23.692999999999998Q173.982 -23.75 174.856 -23.75Q174.97 -23.75 174.97 -23.522Q174.97 -23.294 174.856 -23.294Q173.52599999999998 -23.294 172.861 -23.066000000000003Q172.196 -22.838 171.968 -22.268Q171.73999999999998 -21.698 171.73999999999998 -20.596Z"/><path d="M207.58799999999997 0.45599999999999996Q204.85199999999998 0.45599999999999996 202.62899999999996 -0.513Q200.40599999999998 -1.482 198.82899999999998 -3.192Q197.25199999999998 -4.902 196.397 -7.125Q195.54199999999997 -9.347999999999999 195.54199999999997 -11.856Q195.54199999999997 -14.934 196.73899999999998 -17.252Q197.93599999999998 -19.57 199.91199999999998 -21.109Q201.88799999999998 -22.648 204.24399999999997 -23.408Q206.59999999999997 -24.168 208.91799999999998 -24.168Q211.73 -24.168 213.95299999999997 -23.161Q216.176 -22.154 217.73399999999998 -20.444Q219.29199999999997 -18.733999999999998 220.10899999999998 -16.567999999999998Q220.926 -14.402 220.926 -12.122Q220.926 -9.462 219.86199999999997 -7.182Q218.79799999999997 -4.902 216.95499999999998 -3.192Q215.11199999999997 -1.482 212.69899999999996 -0.513Q210.28599999999997 0.45599999999999996 207.58799999999997 0.45599999999999996ZM208.91799999999998 -0.38Q211.38799999999998 -0.38 213.36399999999998 -1.615Q215.33999999999997 -2.85 216.49899999999997 -5.225Q217.658 -7.6 217.658 -11.058Q217.658 -14.629999999999999 216.385 -17.366Q215.11199999999997 -20.102 212.813 -21.679000000000002Q210.51399999999998 -23.256 207.35999999999999 -23.256Q203.29399999999998 -23.256 201.05199999999996 -20.558Q198.80999999999997 -17.86 198.80999999999997 -13.186Q198.80999999999997 -10.488 199.551 -8.151Q200.29199999999997 -5.814 201.64099999999996 -4.066Q202.98999999999998 -2.318 204.83299999999997 -1.349Q206.676 -0.38 208.91799999999998 -0.38Z"/><path d="M279.626 -12.958 280.044 -13.414Q282.4 -13.414 284.129 -12.578Q285.858 -11.741999999999999 286.827 -10.297999999999998Q287.796 -8.854 287.796 -6.992Q287.796 -4.9399999999999995 286.77 -3.3249999999999997Q285.74399999999997 -1.71 283.95799999999997 -0.779Q282.17199999999997 0.152 279.96799999999996 0.152Q278.78999999999996 0.152 277.251 0.038Q275.712 -0.076 274.382 -0.076Q273.128 -0.076 271.95 -0.038Q270.772 0.0 269.822 0.0Q269.746 0.0 269.746 -0.22799999999999998Q269.746 -0.45599999999999996 269.822 -0.45599999999999996Q271.114 -0.45599999999999996 271.798 -0.6459999999999999Q272.48199999999997 -0.836 272.748 -1.406Q273.014 -1.976 273.014 -3.078V-20.672Q273.014 -21.774 272.767 -22.325Q272.52 -22.875999999999998 271.855 -23.085Q271.19 -23.294 269.89799999999997 -23.294Q269.784 -23.294 269.784 -23.522Q269.784 -23.75 269.89799999999997 -23.75Q270.81 -23.75 271.969 -23.692999999999998Q273.128 -23.636 274.382 -23.636Q275.408 -23.636 276.68100000000004 -23.75Q277.954 -23.864 278.904 -23.864Q281.18399999999997 -23.864 282.628 -23.218Q284.072 -22.572 284.775 -21.451Q285.478 -20.33 285.478 -18.886Q285.478 -16.72 283.901 -15.142999999999999Q282.324 -13.565999999999999 279.626 -12.958ZM278.144 -23.256Q277.308 -23.256 276.79499999999996 -23.085Q276.282 -22.913999999999998 276.054 -22.363Q275.82599999999996 -21.812 275.82599999999996 -20.596V-13.148L274.61 -13.452Q275.82599999999996 -13.376 276.62399999999997 -13.357Q277.42199999999997 -13.338 277.536 -13.338Q280.272 -13.338 281.469 -14.858Q282.666 -16.378 282.666 -18.582Q282.666 -19.912 282.19100000000003 -20.976Q281.716 -22.04 280.74699999999996 -22.648Q279.77799999999996 -23.256 278.144 -23.256ZM279.36 -0.57Q282.17199999999997 -0.57 283.44499999999994 -2.014Q284.71799999999996 -3.4579999999999997 284.71799999999996 -6.042Q284.71799999999996 -8.892 283.12199999999996 -10.678Q281.526 -12.464 278.524 -12.501999999999999Q277.726 -12.54 276.738 -12.501999999999999Q275.75 -12.464 274.724 -12.312L275.82599999999996 -12.73V-3.078Q275.82599999999996 -2.2039999999999997 276.092 -1.634Q276.358 -1.064 277.118 -0.817Q277.878 -0.57 279.36 -0.57Z"/><path d="M318.28599999999994 -10.868 323.758 -19.418Q324.85999999999996 -21.28 324.57499999999993 -22.287Q324.28999999999996 -23.294 322.58 -23.294Q322.46599999999995 -23.294 322.46599999999995 -23.522Q322.46599999999995 -23.75 322.58 -23.75Q323.64399999999995 -23.75 324.61299999999994 -23.692999999999998Q325.582 -23.636 327.14 -23.636Q328.09 -23.636 328.679 -23.692999999999998Q329.268 -23.75 330.104 -23.75Q330.17999999999995 -23.75 330.17999999999995 -23.522Q330.17999999999995 -23.294 330.104 -23.294Q329.22999999999996 -23.294 328.26099999999997 -22.8Q327.292 -22.306 326.38 -21.394Q325.46799999999996 -20.482 324.66999999999996 -19.227999999999998L318.96999999999997 -10.26ZM317.48799999999994 -10.336 310.876 -20.14Q309.698 -21.964 308.76699999999994 -22.628999999999998Q307.83599999999996 -23.294 306.734 -23.294Q306.61999999999995 -23.294 306.61999999999995 -23.522Q306.61999999999995 -23.75 306.734 -23.75Q307.342 -23.75 308.02599999999995 -23.692999999999998Q308.71 -23.636 309.356 -23.636Q310.38199999999995 -23.636 311.38899999999995 -23.655Q312.39599999999996 -23.674 313.308 -23.712Q314.21999999999997 -23.75 314.866 -23.75Q314.94199999999995 -23.75 314.94199999999995 -23.522Q314.94199999999995 -23.294 314.866 -23.294Q313.498 -23.294 313.15599999999995 -22.8Q312.81399999999996 -22.306 313.46 -21.394L319.72999999999996 -12.084ZM317.032 -11.78 319.844 -12.122V-3.078Q319.844 -1.976 320.072 -1.406Q320.29999999999995 -0.836 320.965 -0.6459999999999999Q321.63 -0.45599999999999996 322.96 -0.45599999999999996Q323.07399999999996 -0.45599999999999996 323.07399999999996 -0.22799999999999998Q323.07399999999996 0.0 322.96 0.0Q322.04799999999994 0.0 320.90799999999996 -0.038Q319.768 -0.076 318.4 -0.076Q317.10799999999995 -0.076 315.92999999999995 -0.038Q314.75199999999995 0.0 313.84 0.0Q313.72599999999994 0.0 313.72599999999994 -0.22799999999999998Q313.72599999999994 -0.45599999999999996 313.84 -0.45599999999999996Q315.16999999999996 -0.45599999999999996 315.8539999999999 -0.6459999999999999Q316.53799999999995 -0.836 316.78499999999997 -1.406Q317.032 -1.976 317.032 -3.078Z"/><path d="M393.09799999999996 0.0H376.986Q376.90999999999997 0.0 376.90999999999997 -0.22799999999999998Q376.90999999999997 -0.45599999999999996 376.986 -0.45599999999999996Q378.316 -0.45599999999999996 378.981 -0.6459999999999999Q379.64599999999996 -0.836 379.87399999999997 -1.406Q380.102 -1.976 380.102 -3.078V-20.672Q380.102 -21.774 379.87399999999997 -22.325Q379.64599999999996 -22.875999999999998 378.981 -23.085Q378.316 -23.294 376.986 -23.294Q376.90999999999997 -23.294 376.90999999999997 -23.522Q376.90999999999997 -23.75 376.986 -23.75H392.414Q392.794 -23.75 392.794 -23.407999999999998L392.87 -18.658Q392.87 -18.544 392.661 -18.525Q392.452 -18.506 392.414 -18.62Q392.186 -20.71 391.008 -21.793Q389.83 -22.875999999999998 387.892 -22.875999999999998H385.84Q384.662 -22.875999999999998 384.054 -22.686Q383.44599999999997 -22.496 383.19899999999996 -21.982999999999997Q382.952 -21.47 382.952 -20.52V-3.23Q382.952 -2.28 383.17999999999995 -1.767Q383.40799999999996 -1.254 383.97799999999995 -1.045Q384.548 -0.836 385.688 -0.836H388.31Q390.4 -0.836 391.74899999999997 -2.128Q393.09799999999996 -3.42 393.592 -5.7379999999999995Q393.592 -5.851999999999999 393.82 -5.814Q394.048 -5.776 394.048 -5.7Q393.89599999999996 -4.636 393.7819999999999 -3.2110000000000003Q393.66799999999995 -1.786 393.66799999999995 -0.57Q393.66799999999995 0.0 393.09799999999996 0.0ZM390.96999999999997 -8.778Q390.96999999999997 -10.411999999999999 390.077 -11.172Q389.18399999999997 -11.932 387.16999999999996 -11.932H381.584V-12.806H387.284Q389.18399999999997 -12.806 390.058 -13.451999999999998Q390.93199999999996 -14.097999999999999 390.93199999999996 -15.504Q390.93199999999996 -15.618 391.14099999999996 -15.618Q391.34999999999997 -15.618 391.34999999999997 -15.504Q391.34999999999997 -14.363999999999999 391.33099999999996 -13.718Q391.31199999999995 -13.072 391.31199999999995 -12.35Q391.31199999999995 -11.475999999999999 391.36899999999997 -10.620999999999999Q391.426 -9.766 391.426 -8.778Q391.426 -8.702 391.198 -8.702Q390.96999999999997 -8.702 390.96999999999997 -8.778Z"/><path d="M438.256 -23.75Q438.36999999999995 -23.75 438.36999999999995 -23.522Q438.36999999999995 -23.294 438.256 -23.294Q437.00199999999995 -23.294 435.97599999999994 -22.534Q434.94999999999993 -21.774 434.22799999999995 -19.988L426.4 -0.038Q426.36199999999997 0.11399999999999999 426.001 0.11399999999999999Q425.63999999999993 0.11399999999999999 425.56399999999996 -0.038L416.06399999999996 -20.596Q415.41799999999995 -22.04 414.6959999999999 -22.667Q413.97399999999993 -23.294 412.90999999999997 -23.294Q412.79599999999994 -23.294 412.79599999999994 -23.522Q412.79599999999994 -23.75 412.90999999999997 -23.75Q413.40399999999994 -23.75 413.84099999999995 -23.712Q414.27799999999996 -23.674 414.79099999999994 -23.655Q415.304 -23.636 415.94999999999993 -23.636Q417.318 -23.636 418.287 -23.655Q419.256 -23.674 419.97799999999995 -23.712Q420.69999999999993 -23.75 421.27 -23.75Q421.38399999999996 -23.75 421.38399999999996 -23.522Q421.38399999999996 -23.294 421.27 -23.294Q419.74999999999994 -23.294 419.17999999999995 -22.648Q418.60999999999996 -22.002 419.256 -20.596L427.198 -3.306L425.86799999999994 -1.254L433.3539999999999 -20.178Q433.924 -21.698 433.3539999999999 -22.496000000000002Q432.78399999999993 -23.294 430.77 -23.294Q430.65599999999995 -23.294 430.65599999999995 -23.522Q430.65599999999995 -23.75 430.77 -23.75Q431.71999999999997 -23.75 432.59399999999994 -23.692999999999998Q433.46799999999996 -23.636 434.912 -23.636Q435.97599999999994 -23.636 436.64099999999996 -23.692999999999998Q437.306 -23.75 438.256 -23.75Z"/><path d="M472.8499999999999 0.0H456.73799999999994Q456.6619999999999 0.0 456.6619999999999 -0.22799999999999998Q456.6619999999999 -0.45599999999999996 456.73799999999994 -0.45599999999999996Q458.0679999999999 -0.45599999999999996 458.73299999999995 -0.6459999999999999Q459.3979999999999 -0.836 459.6259999999999 -1.406Q459.8539999999999 -1.976 459.8539999999999 -3.078V-20.672Q459.8539999999999 -21.774 459.6259999999999 -22.325Q459.3979999999999 -22.875999999999998 458.73299999999995 -23.085Q458.0679999999999 -23.294 456.73799999999994 -23.294Q456.6619999999999 -23.294 456.6619999999999 -23.522Q456.6619999999999 -23.75 456.73799999999994 -23.75H472.16599999999994Q472.54599999999994 -23.75 472.54599999999994 -23.407999999999998L472.62199999999996 -18.658Q472.62199999999996 -18.544 472.41299999999995 -18.525Q472.20399999999995 -18.506 472.16599999999994 -18.62Q471.93799999999993 -20.71 470.75999999999993 -21.793Q469.58199999999994 -22.875999999999998 467.64399999999995 -22.875999999999998H465.5919999999999Q464.41399999999993 -22.875999999999998 463.8059999999999 -22.686Q463.1979999999999 -22.496 462.9509999999999 -21.982999999999997Q462.70399999999995 -21.47 462.70399999999995 -20.52V-3.23Q462.70399999999995 -2.28 462.9319999999999 -1.767Q463.1599999999999 -1.254 463.7299999999999 -1.045Q464.29999999999995 -0.836 465.43999999999994 -0.836H468.06199999999995Q470.15199999999993 -0.836 471.5009999999999 -2.128Q472.8499999999999 -3.42 473.34399999999994 -5.7379999999999995Q473.34399999999994 -5.851999999999999 473.57199999999995 -5.814Q473.79999999999995 -5.776 473.79999999999995 -5.7Q473.6479999999999 -4.636 473.5339999999999 -3.2110000000000003Q473.4199999999999 -1.786 473.4199999999999 -0.57Q473.4199999999999 0.0 472.8499999999999 0.0ZM470.7219999999999 -8.778Q470.7219999999999 -10.411999999999999 469.82899999999995 -11.172Q468.9359999999999 -11.932 466.9219999999999 -11.932H461.33599999999996V-12.806H467.03599999999994Q468.9359999999999 -12.806 469.80999999999995 -13.451999999999998Q470.6839999999999 -14.097999999999999 470.6839999999999 -15.504Q470.6839999999999 -15.618 470.8929999999999 -15.618Q471.1019999999999 -15.618 471.1019999999999 -15.504Q471.1019999999999 -14.363999999999999 471.0829999999999 -13.718Q471.0639999999999 -13.072 471.0639999999999 -12.35Q471.0639999999999 -11.475999999999999 471.1209999999999 -10.620999999999999Q471.17799999999994 -9.766 471.17799999999994 -8.778Q471.17799999999994 -8.702 470.94999999999993 -8.702Q470.7219999999999 -8.702 470.7219999999999 -8.778Z"/><path d="M499.8819999999999 -20.634V-3.23Q499.8819999999999 -2.2039999999999997 500.0909999999999 -1.71Q500.2999999999999 -1.216 500.9269999999999 -1.026Q501.5539999999999 -0.836 502.7319999999999 -0.836H506.2659999999999Q508.6219999999999 -0.836 510.1039999999999 -2.28Q511.5859999999999 -3.7239999999999998 512.0419999999999 -6.08Q512.0799999999999 -6.194 512.27 -6.156Q512.4599999999999 -6.117999999999999 512.4599999999999 -6.004Q512.3459999999999 -4.9399999999999995 512.232 -3.401Q512.1179999999999 -1.8619999999999999 512.1179999999999 -0.57Q512.1179999999999 0.0 511.5479999999999 0.0H493.9159999999999Q493.8399999999999 0.0 493.8399999999999 -0.22799999999999998Q493.8399999999999 -0.45599999999999996 493.9159999999999 -0.45599999999999996Q495.2459999999999 -0.45599999999999996 495.91099999999994 -0.6459999999999999Q496.5759999999999 -0.836 496.8039999999999 -1.406Q497.0319999999999 -1.976 497.0319999999999 -3.078V-20.672Q497.0319999999999 -21.774 496.8039999999999 -22.325Q496.5759999999999 -22.875999999999998 495.91099999999994 -23.085Q495.2459999999999 -23.294 493.9159999999999 -23.294Q493.8399999999999 -23.294 493.8399999999999 -23.522Q493.8399999999999 -23.75 493.9159999999999 -23.75Q494.8279999999999 -23.75 496.0059999999999 -23.692999999999998Q497.1839999999999 -23.636 498.43799999999993 -23.636Q499.8059999999999 -23.636 500.9649999999999 -23.692999999999998Q502.1239999999999 -23.75 502.99799999999993 -23.75Q503.1119999999999 -23.75 503.1119999999999 -23.522Q503.1119999999999 -23.294 502.99799999999993 -23.294Q501.6679999999999 -23.294 501.00299999999993 -23.085Q500.3379999999999 -22.875999999999998 500.1099999999999 -22.305999999999997Q499.8819999999999 -21.736 499.8819999999999 -20.634Z"/><path d="M541.582 -10.868 547.054 -19.418Q548.156 -21.28 547.871 -22.287Q547.586 -23.294 545.876 -23.294Q545.762 -23.294 545.762 -23.522Q545.762 -23.75 545.876 -23.75Q546.9399999999999 -23.75 547.9089999999999 -23.692999999999998Q548.8779999999999 -23.636 550.4359999999999 -23.636Q551.386 -23.636 551.9749999999999 -23.692999999999998Q552.564 -23.75 553.4 -23.75Q553.476 -23.75 553.476 -23.522Q553.476 -23.294 553.4 -23.294Q552.526 -23.294 551.557 -22.8Q550.588 -22.306 549.6759999999999 -21.394Q548.764 -20.482 547.966 -19.227999999999998L542.266 -10.26ZM540.784 -10.336 534.1719999999999 -20.14Q532.9939999999999 -21.964 532.0629999999999 -22.628999999999998Q531.132 -23.294 530.03 -23.294Q529.9159999999999 -23.294 529.9159999999999 -23.522Q529.9159999999999 -23.75 530.03 -23.75Q530.6379999999999 -23.75 531.3219999999999 -23.692999999999998Q532.006 -23.636 532.6519999999999 -23.636Q533.678 -23.636 534.685 -23.655Q535.692 -23.674 536.604 -23.712Q537.516 -23.75 538.1619999999999 -23.75Q538.2379999999999 -23.75 538.2379999999999 -23.522Q538.2379999999999 -23.294 538.1619999999999 -23.294Q536.794 -23.294 536.452 -22.8Q536.11 -22.306 536.756 -21.394L543.026 -12.084ZM540.328 -11.78 543.14 -12.122V-3.078Q543.14 -1.976 543.3679999999999 -1.406Q543.596 -0.836 544.261 -0.6459999999999999Q544.9259999999999 -0.45599999999999996 546.256 -0.45599999999999996Q546.37 -0.45599999999999996 546.37 -0.22799999999999998Q546.37 0.0 546.256 0.0Q545.3439999999999 0.0 544.204 -0.038Q543.064 -0.076 541.6959999999999 -0.076Q540.404 -0.076 539.226 -0.038Q538.048 0.0 537.136 0.0Q537.0219999999999 0.0 537.0219999999999 -0.22799999999999998Q537.0219999999999 -0.45599999999999996 537.136 -0.45599999999999996Q538.466 -0.45599999999999996 539.15 -0.6459999999999999Q539.834 -0.836 540.0809999999999 -1.406Q540.328 -1.976 540.328 -3.078Z"/><path d="M574.8459999999999 -4.294V-22.875999999999998L575.7959999999999 -22.8V-4.294Q575.7959999999999 -2.318 576.5179999999999 -1.387Q577.2399999999999 -0.45599999999999996 578.7979999999999 -0.45599999999999996Q578.9119999999999 -0.45599999999999996 578.9119999999999 -0.22799999999999998Q578.9119999999999 0.0 578.7979999999999 0.0Q578.0379999999999 0.0 577.2209999999999 -0.038Q576.4039999999999 -0.076 575.4159999999999 -0.076Q574.39 -0.076 573.459 -0.038Q572.5279999999999 0.0 571.7299999999999 0.0Q571.6539999999999 0.0 571.6539999999999 -0.22799999999999998Q571.6539999999999 -0.45599999999999996 571.7299999999999 -0.45599999999999996Q573.4019999999999 -0.45599999999999996 574.1239999999999 -1.387Q574.8459999999999 -2.318 574.8459999999999 -4.294ZM594.074 0.45599999999999996Q594.074 0.57 593.884 0.589Q593.694 0.608 593.6179999999999 0.57L575.872 -20.634Q574.5419999999999 -22.192 573.5539999999999 -22.743000000000002Q572.5659999999999 -23.294 571.6539999999999 -23.294Q571.54 -23.294 571.54 -23.522Q571.54 -23.75 571.6539999999999 -23.75Q572.338 -23.75 573.06 -23.712Q573.7819999999999 -23.674 574.39 -23.674Q575.2259999999999 -23.674 575.9479999999999 -23.712Q576.67 -23.75 577.012 -23.75Q577.506 -23.75 577.7149999999999 -23.313Q577.924 -22.875999999999998 578.8359999999999 -21.774L593.77 -3.686ZM594.074 -19.418V0.45599999999999996L593.1239999999999 -0.6839999999999999V-19.418Q593.1239999999999 -21.394 592.4399999999999 -22.344Q591.756 -23.294 590.198 -23.294Q590.122 -23.294 590.122 -23.522Q590.122 -23.75 590.198 -23.75Q590.996 -23.75 591.8129999999999 -23.692999999999998Q592.6299999999999 -23.636 593.6179999999999 -23.636Q594.568 -23.636 595.48 -23.692999999999998Q596.3919999999999 -23.75 597.1519999999999 -23.75Q597.266 -23.75 597.266 -23.522Q597.266 -23.294 597.1519999999999 -23.294Q595.5559999999999 -23.294 594.8149999999999 -22.344Q594.074 -21.394 594.074 -19.418Z"/></g></g></svg>