<svg xmlns="http://www.w3.org/2000/svg" viewBox="228 52 760 760"><rect x="228" y="52" width="760" height="760" rx="150" fill="#F1EAE1"/><path d="M896.0,745.2 L899.6,712.9 L903.5,686.1 L902.6,602.4 L900.1,534.8 L894.0,441.4 L891.5,386.5 L889.5,368.1 L886.4,349.8 L879.8,322.8 L870.8,296.6 L863.5,279.6 L850.7,254.9 L840.9,239.1 L830.2,224.0 L818.5,209.5 L799.4,189.2 L778.3,170.7 L755.5,154.3 L731.2,140.2 L705.6,128.5 L678.9,119.5 L651.5,113.1 L623.5,109.5 L595.3,108.7 L567.2,110.7 L539.4,115.5 L512.3,123.0 L486.3,133.5 L461.4,146.3 L437.9,161.4 L415.9,178.4 L395.6,197.3 L377.0,217.9 L360.4,240.0 L350.5,255.6 L337.7,280.1 L327.3,305.8 L321.9,323.3 L316.1,350.3 L313.7,368.5 L312.5,386.7 L312.6,405.8 L313.4,412.8 L324.7,471.6 L329.5,492.1 L335.1,509.5 L349.8,547.1 L355.2,564.6 L357.2,542.7 L354.7,522.7 L353.0,500.7 L347.0,469.5 L343.3,443.0 L341.1,416.2 L341.0,396.8 L343.6,372.3 L348.7,348.2 L356.1,324.9 L362.2,309.8 L369.2,295.5 L360.9,318.0 L354.6,341.3 L350.5,365.1 L348.4,393.3 L350.7,373.2 L353.6,357.8 L350.9,381.2 L350.4,405.2 L354.8,438.9 L356.5,459.7 L357.6,484.5 L360.4,504.2 L362.5,524.9 L365.2,524.7 L373.7,567.6 L374.2,529.8 L370.3,509.2 L369.4,491.4 L370.9,467.3 L372.1,471.3 L371.9,452.2 L373.6,461.6 L374.1,452.0 L378.5,472.6 L380.6,487.3 L381.5,502.2 L381.4,516.8 L383.7,560.1 L387.5,579.4 L382.2,579.9 L408.5,577.5 L407.4,553.6 L407.4,538.7 L411.2,481.5 L411.2,427.6 L412.4,403.5 L412.9,404.3 L415.3,387.4 L417.9,375.9 L421.1,364.6 L427.1,348.2 L431.8,337.7 L439.8,322.4 L449.0,307.9 L455.7,298.7 L466.7,285.7 L474.6,277.6 L491.9,262.9 L506.1,253.6 L516.0,248.2 L536.8,239.6 L547.6,236.4 L564.0,232.8 L575.0,231.2 L591.7,230.4 L613.8,231.9 L624.6,233.8 L640.5,237.9 L660.9,245.7 L679.9,255.8 L697.5,268.1 L713.5,282.1 L727.8,297.7 L734.3,306.1 L743.3,319.2 L753.5,337.8 L761.7,357.5 L767.7,378.2 L771.2,399.6 L789.8,621.3 L793.6,659.1 L797.7,691.4 L798.6,696.8 L817.7,754.7 L861.5,749.3 L858.3,685.4 L861.0,685.1 L872.0,748.1 L863.6,749.1 L896.0,745.2 Z M613.1,130.9 L638.3,134.0 L621.6,132.7 L604.3,132.3 L578.4,133.8 L552.9,137.7 L536.1,141.6 L519.6,146.5 L495.6,155.7 L480.1,163.1 L465.1,171.4 L450.7,180.5 L436.8,190.6 L423.6,201.4 L411.0,213.0 L399.2,225.4 L388.2,238.4 L373.1,259.2 L364.2,273.8 L356.1,288.9 L345.8,312.5 L337.6,336.9 L331.8,362.1 L329.2,379.1 L327.6,396.4 L327.5,420.5 L325.3,405.6 L325.2,396.3 L325.9,378.8 L327.7,361.4 L330.6,344.2 L334.7,327.1 L342.8,302.0 L349.6,285.8 L357.5,270.1 L371.2,247.5 L387.1,226.3 L405.0,206.9 L424.7,189.3 L446.1,173.7 L468.9,160.4 L484.8,152.8 L501.1,146.2 L526.3,138.5 L552.1,133.2 L578.2,130.5 L595.6,130.1 L613.1,130.9 Z M529.8,202.2 L569.5,193.2 L583.0,191.5 L603.4,190.5 L617.0,191.1 L637.3,193.5 L650.6,196.3 L663.8,199.9 L676.6,204.4 L689.2,209.8 L707.2,219.3 L718.7,226.6 L734.9,239.0 L745.0,248.1 L758.9,262.8 L771.3,278.9 L778.9,290.4 L762.2,268.9 L753.0,259.1 L743.3,249.9 L733.0,241.3 L722.2,233.4 L711.0,226.2 L696.6,218.3 L710.5,226.9 L726.7,239.3 L709.4,228.7 L691.8,219.8 L673.5,212.5 L648.5,205.0 L629.3,201.0 L609.8,198.6 L590.1,197.7 L569.9,198.6 L590.0,195.7 L606.4,194.9 L583.3,195.1 L570.0,196.4 L555.7,198.7 L537.6,204.4 L525.2,209.3 L513.2,214.9 L495.9,224.7 L484.8,231.9 L469.1,243.9 L459.3,252.6 L445.4,266.7 L432.7,281.8 L425.0,292.5 L414.5,309.4 L408.3,321.1 L400.4,339.4 L396.0,352.1 L389.4,378.5 L391.9,358.0 L394.7,344.7 L400.5,325.1 L405.4,312.4 L414.5,293.9 L421.6,282.2 L429.6,271.0 L438.3,260.3 L447.8,250.3 L457.9,241.0 L468.7,232.5 L485.9,221.1 L498.0,214.6 L516.8,206.5 L529.8,202.2 Z M443.6,235.6 L455.1,226.7 L467.4,218.6 L451.0,233.0 L436.1,248.7 L422.6,265.5 L406.7,289.3 L393.2,314.5 L384.8,334.3 L378.0,354.9 L372.9,376.1 L375.5,354.3 L380.3,332.8 L387.4,312.0 L393.5,298.5 L400.6,285.6 L413.0,267.3 L427.4,250.6 L443.6,235.6 Z M539.1,209.0 L551.7,205.8 L564.9,203.3 L545.6,208.2 L527.3,214.6 L509.7,222.7 L498.4,229.0 L487.6,236.0 L472.2,247.7 L453.5,265.3 L441.0,280.0 L426.6,301.2 L417.6,318.2 L410.1,335.9 L404.3,354.2 L401.3,366.7 L398.4,385.7 L397.2,404.5 L399.3,446.7 L393.5,404.6 L394.1,385.3 L395.7,372.3 L399.5,353.0 L405.3,334.1 L412.9,315.9 L422.2,298.5 L429.3,287.5 L441.4,271.9 L454.9,257.6 L469.7,244.6 L485.7,233.2 L502.7,223.4 L520.5,215.3 L539.1,209.0 Z M364.1,367.3 L367.8,352.6 L372.6,338.3 L368.7,360.4 L367.2,375.3 L366.6,390.2 L366.8,405.0 L369.5,422.5 L370.6,437.4 L370.5,455.4 L369.4,473.4 L362.0,441.2 L359.5,417.5 L359.6,397.4 L361.3,382.2 L364.1,367.3 Z M810.6,252.2 L822.4,271.9 L829.4,286.3 L816.2,266.0 L806.4,253.1 L795.8,240.7 L784.6,229.0 L772.7,218.0 L760.3,207.6 L747.4,198.0 L734.0,189.0 L720.2,180.7 L705.8,173.2 L691.1,166.5 L676.0,160.6 L660.5,155.6 L644.7,151.5 L629.0,148.3 L653.2,150.9 L669.4,154.1 L685.4,158.3 L702.9,164.5 L685.7,157.4 L670.4,152.1 L693.9,159.2 L709.4,165.3 L732.0,176.4 L753.3,189.7 L773.3,205.0 L785.7,216.3 L797.3,228.5 L813.2,248.0 L822.6,261.9 L834.9,283.9 L841.9,299.1 L850.5,322.7 L856.6,347.0 L860.4,371.3 L857.3,355.4 L853.3,339.3 L848.3,323.5 L842.3,308.0 L835.4,292.9 L827.7,278.3 L819.0,264.2 L810.6,252.2 Z M700.0,231.8 L710.6,238.8 L721.2,246.7 L704.7,236.2 L693.7,230.2 L676.4,222.5 L658.6,216.5 L640.4,212.1 L621.8,209.3 L603.1,208.3 L584.4,208.8 L565.8,211.1 L553.5,213.5 L535.4,218.4 L523.6,222.7 L506.4,230.4 L495.4,236.4 L473.9,250.7 L484.2,242.4 L499.9,231.6 L516.6,222.5 L528.3,217.3 L546.4,211.0 L558.7,207.8 L571.3,205.4 L584.0,203.9 L596.8,203.3 L609.6,203.5 L622.3,204.6 L641.2,207.9 L653.6,211.1 L671.7,217.4 L683.3,222.6 L700.0,231.8 Z M835.6,273.9 L843.1,289.3 L849.3,304.6 L838.1,282.2 L824.9,260.5 L809.8,240.0 L798.8,227.2 L787.1,215.0 L774.7,203.4 L761.6,192.6 L740.9,177.9 L719.0,164.9 L696.4,154.1 L719.7,163.6 L742.4,175.5 L763.8,189.8 L777.2,200.4 L789.9,212.1 L807.3,231.1 L822.6,251.8 L835.6,273.9 Z M768.9,263.2 L777.3,274.5 L785.1,286.4 L776.6,275.0 L766.6,263.0 L776.0,275.4 L783.6,287.3 L771.0,270.5 L761.9,260.2 L752.2,250.4 L741.8,241.3 L731.0,232.9 L719.7,225.1 L707.9,218.1 L695.7,211.9 L683.2,206.4 L670.4,201.6 L657.3,197.7 L644.0,194.6 L630.6,192.3 L617.0,190.8 L603.4,190.1 L589.8,190.3 L576.2,191.2 L555.9,194.3 L536.0,199.2 L516.6,205.9 L504.0,211.3 L491.8,217.5 L474.2,228.3 L457.6,240.7 L437.2,259.7 L446.7,249.2 L457.9,238.5 L446.1,248.7 L436.0,258.6 L450.5,243.1 L460.8,233.7 L471.8,224.9 L483.3,216.9 L495.3,209.6 L514.2,200.1 L527.3,194.9 L540.7,190.5 L561.3,185.5 L582.3,182.7 L603.5,181.9 L624.7,183.2 L645.7,186.6 L666.2,192.1 L679.5,196.9 L692.5,202.5 L711.1,212.5 L723.0,220.2 L734.3,228.6 L750.1,242.5 L759.9,252.6 L768.9,263.2 Z M874.1,415.5 L873.1,435.7 L876.0,504.4 L877.3,577.9 L873.5,536.0 L871.4,499.4 L870.8,462.7 L871.8,420.1 L870.5,396.4 L867.9,370.8 L863.0,345.6 L858.7,329.1 L850.4,304.8 L843.7,289.0 L836.1,273.6 L827.7,258.7 L818.4,244.2 L808.2,230.3 L791.8,211.0 L803.8,222.6 L815.5,235.6 L831.3,256.4 L844.9,278.7 L856.1,302.5 L864.8,327.2 L869.1,344.2 L872.2,361.4 L874.6,387.5 L874.1,415.5 Z M811.2,431.8 L810.4,539.0 L805.6,474.7 L802.3,392.1 L800.5,372.9 L798.4,360.2 L792.4,335.0 L785.5,316.7 L779.9,304.9 L773.6,293.5 L758.6,271.4 L771.4,287.0 L782.4,303.5 L794.7,327.1 L802.2,345.6 L807.8,365.0 L811.0,384.8 L812.0,405.2 L811.2,431.8 Z M821.7,694.5 L823.8,743.0 L817.0,705.8 L812.9,673.6 L810.9,641.3 L810.7,603.6 L816.3,640.9 L819.5,667.6 L821.7,694.5 Z" fill="#BD6B4D" fill-rule="evenodd"/></svg>